M48
; DRILL file {KiCad 5.1.12-84ad8e8a86~92~ubuntu20.04.1} date Sa 04 Dez 2021 14:18:51 CET
; FORMAT={-:-/ absolute / metric / decimal}
; #@! TF.CreationDate,2021-12-04T14:18:51+01:00
; #@! TF.GenerationSoftware,Kicad,Pcbnew,5.1.12-84ad8e8a86~92~ubuntu20.04.1
; #@! TF.FileFunction,Plated,1,2,PTH
FMAT,2
METRIC
T1C0.400
T2C1.000
T3C1.500
%
G90
G05
T1
X129.54Y-101.6
X132.08Y-97.155
X133.985Y-95.25
X134.62Y-97.155
X134.62Y-101.6
X136.525Y-93.98
X136.525Y-97.155
X139.7Y-97.155
X140.97Y-93.98
X140.97Y-98.425
X141.605Y-95.885
X141.605Y-99.695
X142.875Y-97.155
X143.51Y-90.805
X144.145Y-99.695
X144.78Y-97.79
T2
X116.84Y-80.01
X116.84Y-82.55
X116.84Y-85.09
X116.84Y-87.63
X116.84Y-90.17
X116.84Y-92.71
X116.84Y-95.25
X116.84Y-97.79
X147.32Y-80.01
X147.32Y-82.55
X147.32Y-85.09
X147.32Y-87.63
X147.32Y-90.17
X147.32Y-92.71
X147.32Y-95.25
X147.32Y-97.79
T3
X129.46Y-99.06
X129.46Y-104.14
X132.0Y-101.6
X134.54Y-99.06
X134.54Y-104.14
T0
M30
