%TF.GenerationSoftware,KiCad,Pcbnew,5.1.12-84ad8e8a86~92~ubuntu20.04.1*%
%TF.CreationDate,2021-12-04T14:18:14+01:00*%
%TF.ProjectId,RFMBreakout,52464d42-7265-4616-9b6f-75742e6b6963,rev?*%
%TF.SameCoordinates,Original*%
%TF.FileFunction,Copper,L1,Top*%
%TF.FilePolarity,Positive*%
%FSLAX46Y46*%
G04 Gerber Fmt 4.6, Leading zero omitted, Abs format (unit mm)*
G04 Created by KiCad (PCBNEW 5.1.12-84ad8e8a86~92~ubuntu20.04.1) date 2021-12-04 14:18:14*
%MOMM*%
%LPD*%
G01*
G04 APERTURE LIST*
%TA.AperFunction,ComponentPad*%
%ADD10C,2.250000*%
%TD*%
%TA.AperFunction,SMDPad,CuDef*%
%ADD11R,1.000000X1.000000*%
%TD*%
%TA.AperFunction,SMDPad,CuDef*%
%ADD12R,1.050000X2.200000*%
%TD*%
%TA.AperFunction,ComponentPad*%
%ADD13O,1.700000X1.700000*%
%TD*%
%TA.AperFunction,ComponentPad*%
%ADD14R,1.700000X1.700000*%
%TD*%
%TA.AperFunction,SMDPad,CuDef*%
%ADD15R,2.000000X1.000000*%
%TD*%
%TA.AperFunction,ViaPad*%
%ADD16C,0.800000*%
%TD*%
%TA.AperFunction,Conductor*%
%ADD17C,0.250000*%
%TD*%
%TA.AperFunction,Conductor*%
%ADD18C,0.304800*%
%TD*%
%TA.AperFunction,Conductor*%
%ADD19C,0.293370*%
%TD*%
%TA.AperFunction,Conductor*%
%ADD20C,0.254000*%
%TD*%
%TA.AperFunction,Conductor*%
%ADD21C,0.100000*%
%TD*%
G04 APERTURE END LIST*
D10*
%TO.P,J4,2*%
%TO.N,GND*%
X134540000Y-99060000D03*
X134540000Y-104140000D03*
X129460000Y-104140000D03*
X129460000Y-99060000D03*
%TO.P,J4,1*%
%TO.N,ANT*%
X132000000Y-101600000D03*
%TD*%
D11*
%TO.P,J3,1*%
%TO.N,ANT*%
X143000000Y-101500000D03*
%TO.P,J3,2*%
%TO.N,GND*%
X143000000Y-104500000D03*
D12*
X141525000Y-103000000D03*
X144475000Y-103000000D03*
%TD*%
D13*
%TO.P,J2,8*%
%TO.N,DIO2*%
X147320000Y-80010000D03*
%TO.P,J2,7*%
%TO.N,DIO1*%
X147320000Y-82550000D03*
%TO.P,J2,6*%
%TO.N,DIO0*%
X147320000Y-85090000D03*
%TO.P,J2,5*%
%TO.N,+3V3*%
X147320000Y-87630000D03*
%TO.P,J2,4*%
%TO.N,DIO4*%
X147320000Y-90170000D03*
%TO.P,J2,3*%
%TO.N,DIO3*%
X147320000Y-92710000D03*
%TO.P,J2,2*%
%TO.N,GND*%
X147320000Y-95250000D03*
D14*
%TO.P,J2,1*%
%TO.N,ANT*%
X147320000Y-97790000D03*
%TD*%
%TO.P,C1,2*%
%TO.N,GND*%
%TA.AperFunction,SMDPad,CuDef*%
G36*
G01*
X143035000Y-88715000D02*
X143985000Y-88715000D01*
G75*
G02*
X144235000Y-88965000I0J-250000D01*
G01*
X144235000Y-89640000D01*
G75*
G02*
X143985000Y-89890000I-250000J0D01*
G01*
X143035000Y-89890000D01*
G75*
G02*
X142785000Y-89640000I0J250000D01*
G01*
X142785000Y-88965000D01*
G75*
G02*
X143035000Y-88715000I250000J0D01*
G01*
G37*
%TD.AperFunction*%
%TO.P,C1,1*%
%TO.N,+3V3*%
%TA.AperFunction,SMDPad,CuDef*%
G36*
G01*
X143035000Y-86640000D02*
X143985000Y-86640000D01*
G75*
G02*
X144235000Y-86890000I0J-250000D01*
G01*
X144235000Y-87565000D01*
G75*
G02*
X143985000Y-87815000I-250000J0D01*
G01*
X143035000Y-87815000D01*
G75*
G02*
X142785000Y-87565000I0J250000D01*
G01*
X142785000Y-86890000D01*
G75*
G02*
X143035000Y-86640000I250000J0D01*
G01*
G37*
%TD.AperFunction*%
%TD*%
D15*
%TO.P,U1,16*%
%TO.N,DIO2*%
X138810000Y-81900000D03*
%TO.P,U1,15*%
%TO.N,DIO1*%
X138810000Y-83900000D03*
%TO.P,U1,14*%
%TO.N,DIO0*%
X138810000Y-85900000D03*
%TO.P,U1,13*%
%TO.N,+3V3*%
X138810000Y-87900000D03*
%TO.P,U1,12*%
%TO.N,DIO4*%
X138810000Y-89900000D03*
%TO.P,U1,11*%
%TO.N,DIO3*%
X138810000Y-91900000D03*
%TO.P,U1,10*%
%TO.N,GND*%
X138810000Y-93900000D03*
%TO.P,U1,9*%
%TO.N,ANT*%
X138810000Y-95900000D03*
%TO.P,U1,8*%
%TO.N,GND*%
X122810000Y-95900000D03*
%TO.P,U1,7*%
%TO.N,DIO5*%
X122810000Y-93900000D03*
%TO.P,U1,6*%
%TO.N,RESET*%
X122810000Y-91900000D03*
%TO.P,U1,5*%
%TO.N,~SS*%
X122810000Y-89900000D03*
%TO.P,U1,4*%
%TO.N,SCK*%
X122810000Y-87900000D03*
%TO.P,U1,3*%
%TO.N,MOSI*%
X122810000Y-85900000D03*
%TO.P,U1,2*%
%TO.N,MISO*%
X122810000Y-83900000D03*
%TO.P,U1,1*%
%TO.N,GND*%
X122810000Y-81900000D03*
%TD*%
D13*
%TO.P,J1,8*%
%TO.N,GND*%
X116840000Y-97790000D03*
%TO.P,J1,7*%
%TO.N,DIO5*%
X116840000Y-95250000D03*
%TO.P,J1,6*%
%TO.N,RESET*%
X116840000Y-92710000D03*
%TO.P,J1,5*%
%TO.N,~SS*%
X116840000Y-90170000D03*
%TO.P,J1,4*%
%TO.N,SCK*%
X116840000Y-87630000D03*
%TO.P,J1,3*%
%TO.N,MOSI*%
X116840000Y-85090000D03*
%TO.P,J1,2*%
%TO.N,MISO*%
X116840000Y-82550000D03*
D14*
%TO.P,J1,1*%
%TO.N,GND*%
X116840000Y-80010000D03*
%TD*%
D16*
%TO.N,GND*%
X129540000Y-101600000D03*
X134620000Y-101600000D03*
X132080000Y-97155000D03*
X133985000Y-95250000D03*
X136525000Y-93980000D03*
X134620000Y-97155000D03*
X136525000Y-97155000D03*
X139700000Y-97155000D03*
X140970000Y-98425000D03*
X141605000Y-99695000D03*
X144145000Y-99695000D03*
X141605000Y-95885000D03*
X142875000Y-97155000D03*
X144780000Y-97790000D03*
X140970000Y-93980000D03*
X143510000Y-90805000D03*
%TD*%
D17*
%TO.N,DIO5*%
X122810000Y-93900000D02*
X120095000Y-93900000D01*
X118745000Y-95250000D02*
X116840000Y-95250000D01*
X120095000Y-93900000D02*
X118745000Y-95250000D01*
%TO.N,RESET*%
X122810000Y-91900000D02*
X120190000Y-91900000D01*
X119380000Y-92710000D02*
X116840000Y-92710000D01*
X120190000Y-91900000D02*
X119380000Y-92710000D01*
%TO.N,~SS*%
X117110000Y-89900000D02*
X116840000Y-90170000D01*
X122810000Y-89900000D02*
X117110000Y-89900000D01*
%TO.N,SCK*%
X117110000Y-87900000D02*
X116840000Y-87630000D01*
X122810000Y-87900000D02*
X117110000Y-87900000D01*
%TO.N,MOSI*%
X122810000Y-85900000D02*
X120825000Y-85900000D01*
X120015000Y-85090000D02*
X116840000Y-85090000D01*
X120825000Y-85900000D02*
X120015000Y-85090000D01*
%TO.N,MISO*%
X122810000Y-83900000D02*
X120730000Y-83900000D01*
X119380000Y-82550000D02*
X116840000Y-82550000D01*
X120730000Y-83900000D02*
X119380000Y-82550000D01*
%TO.N,DIO2*%
X142890000Y-81900000D02*
X140545000Y-81900000D01*
X144780000Y-80010000D02*
X142890000Y-81900000D01*
X146685000Y-80010000D02*
X144780000Y-80010000D01*
X140545000Y-81900000D02*
X138810000Y-81900000D01*
%TO.N,DIO1*%
X144780000Y-82550000D02*
X146685000Y-82550000D01*
X143430000Y-83900000D02*
X144780000Y-82550000D01*
X138810000Y-83900000D02*
X143430000Y-83900000D01*
%TO.N,DIO0*%
X143002000Y-85090000D02*
X146685000Y-85090000D01*
X142192000Y-85900000D02*
X143002000Y-85090000D01*
X138810000Y-85900000D02*
X142192000Y-85900000D01*
D18*
%TO.N,+3V3*%
X143912500Y-87630000D02*
X143510000Y-87227500D01*
X146685000Y-87630000D02*
X143912500Y-87630000D01*
X142837500Y-87900000D02*
X143510000Y-87227500D01*
X138810000Y-87900000D02*
X142837500Y-87900000D01*
D17*
%TO.N,DIO4*%
X146050000Y-90170000D02*
X146685000Y-90170000D01*
X144780000Y-91440000D02*
X146050000Y-90170000D01*
X142875000Y-91440000D02*
X144780000Y-91440000D01*
X141335000Y-89900000D02*
X142875000Y-91440000D01*
X138810000Y-89900000D02*
X141335000Y-89900000D01*
%TO.N,DIO3*%
X142494000Y-92710000D02*
X146685000Y-92710000D01*
X141684000Y-91900000D02*
X142494000Y-92710000D01*
X138810000Y-91900000D02*
X141684000Y-91900000D01*
D19*
%TO.N,ANT*%
X143000000Y-98796630D02*
X143000000Y-101500000D01*
X140103370Y-95900000D02*
X143000000Y-98796630D01*
X138810000Y-95900000D02*
X140103370Y-95900000D01*
X146313370Y-98796630D02*
X147320000Y-97790000D01*
X143000000Y-98796630D02*
X146313370Y-98796630D01*
X132000000Y-98505000D02*
X132000000Y-101600000D01*
X134605000Y-95900000D02*
X132000000Y-98505000D01*
X138810000Y-95900000D02*
X134605000Y-95900000D01*
%TD*%
D20*
%TO.N,GND*%
X147309229Y-78438267D02*
X147606688Y-78528075D01*
X147881028Y-78673945D01*
X148121813Y-78870325D01*
X148319873Y-79109736D01*
X148467654Y-79383053D01*
X148559535Y-79679872D01*
X148594001Y-80007792D01*
X148594000Y-94488034D01*
X148591641Y-94483080D01*
X148417588Y-94249731D01*
X148201355Y-94054822D01*
X147951252Y-93905843D01*
X147788832Y-93848228D01*
X147903097Y-93800898D01*
X148104717Y-93666180D01*
X148276180Y-93494717D01*
X148410898Y-93293097D01*
X148503693Y-93069069D01*
X148551000Y-92831243D01*
X148551000Y-92588757D01*
X148503693Y-92350931D01*
X148410898Y-92126903D01*
X148276180Y-91925283D01*
X148104717Y-91753820D01*
X147903097Y-91619102D01*
X147679069Y-91526307D01*
X147441243Y-91479000D01*
X147198757Y-91479000D01*
X146960931Y-91526307D01*
X146736903Y-91619102D01*
X146535283Y-91753820D01*
X146363820Y-91925283D01*
X146229102Y-92126903D01*
X146197168Y-92204000D01*
X142703592Y-92204000D01*
X142059376Y-91559785D01*
X142043527Y-91540473D01*
X141966479Y-91477241D01*
X141878575Y-91430255D01*
X141783193Y-91401322D01*
X141708854Y-91394000D01*
X141708846Y-91394000D01*
X141684000Y-91391553D01*
X141659154Y-91394000D01*
X140192252Y-91394000D01*
X140185487Y-91325311D01*
X140163701Y-91253492D01*
X140128322Y-91187304D01*
X140080711Y-91129289D01*
X140022696Y-91081678D01*
X139956508Y-91046299D01*
X139884689Y-91024513D01*
X139810000Y-91017157D01*
X137810000Y-91017157D01*
X137735311Y-91024513D01*
X137663492Y-91046299D01*
X137597304Y-91081678D01*
X137539289Y-91129289D01*
X137491678Y-91187304D01*
X137456299Y-91253492D01*
X137434513Y-91325311D01*
X137427157Y-91400000D01*
X137427157Y-92400000D01*
X137434513Y-92474689D01*
X137456299Y-92546508D01*
X137491678Y-92612696D01*
X137539289Y-92670711D01*
X137597304Y-92718322D01*
X137663492Y-92753701D01*
X137719874Y-92770804D01*
X137685518Y-92774188D01*
X137565820Y-92810498D01*
X137455506Y-92869463D01*
X137358815Y-92948815D01*
X137279463Y-93045506D01*
X137220498Y-93155820D01*
X137184188Y-93275518D01*
X137171928Y-93400000D01*
X137175000Y-93614250D01*
X137333750Y-93773000D01*
X138683000Y-93773000D01*
X138683000Y-93753000D01*
X138937000Y-93753000D01*
X138937000Y-93773000D01*
X140286250Y-93773000D01*
X140445000Y-93614250D01*
X140448072Y-93400000D01*
X140435812Y-93275518D01*
X140399502Y-93155820D01*
X140340537Y-93045506D01*
X140261185Y-92948815D01*
X140164494Y-92869463D01*
X140054180Y-92810498D01*
X139934482Y-92774188D01*
X139900126Y-92770804D01*
X139956508Y-92753701D01*
X140022696Y-92718322D01*
X140080711Y-92670711D01*
X140128322Y-92612696D01*
X140163701Y-92546508D01*
X140185487Y-92474689D01*
X140192252Y-92406000D01*
X141474409Y-92406000D01*
X142118628Y-93050220D01*
X142134473Y-93069527D01*
X142211521Y-93132759D01*
X142299425Y-93179745D01*
X142394807Y-93208678D01*
X142469146Y-93216000D01*
X142469154Y-93216000D01*
X142494000Y-93218447D01*
X142518846Y-93216000D01*
X146197168Y-93216000D01*
X146229102Y-93293097D01*
X146363820Y-93494717D01*
X146535283Y-93666180D01*
X146736903Y-93800898D01*
X146851168Y-93848228D01*
X146688748Y-93905843D01*
X146438645Y-94054822D01*
X146222412Y-94249731D01*
X146048359Y-94483080D01*
X145923175Y-94745901D01*
X145878524Y-94893110D01*
X145999845Y-95123000D01*
X147193000Y-95123000D01*
X147193000Y-95103000D01*
X147447000Y-95103000D01*
X147447000Y-95123000D01*
X147467000Y-95123000D01*
X147467000Y-95377000D01*
X147447000Y-95377000D01*
X147447000Y-95397000D01*
X147193000Y-95397000D01*
X147193000Y-95377000D01*
X145999845Y-95377000D01*
X145878524Y-95606890D01*
X145923175Y-95754099D01*
X146048359Y-96016920D01*
X146222412Y-96250269D01*
X146438645Y-96445178D01*
X146626633Y-96557157D01*
X146470000Y-96557157D01*
X146395311Y-96564513D01*
X146323492Y-96586299D01*
X146257304Y-96621678D01*
X146199289Y-96669289D01*
X146151678Y-96727304D01*
X146116299Y-96793492D01*
X146094513Y-96865311D01*
X146087157Y-96940000D01*
X146087157Y-98268945D01*
X143218574Y-98268945D01*
X140494831Y-95545202D01*
X140478305Y-95525065D01*
X140397954Y-95459123D01*
X140306283Y-95410124D01*
X140206814Y-95379950D01*
X140190712Y-95378364D01*
X140185487Y-95325311D01*
X140163701Y-95253492D01*
X140128322Y-95187304D01*
X140080711Y-95129289D01*
X140022696Y-95081678D01*
X139956508Y-95046299D01*
X139900126Y-95029196D01*
X139934482Y-95025812D01*
X140054180Y-94989502D01*
X140164494Y-94930537D01*
X140261185Y-94851185D01*
X140340537Y-94754494D01*
X140399502Y-94644180D01*
X140435812Y-94524482D01*
X140448072Y-94400000D01*
X140445000Y-94185750D01*
X140286250Y-94027000D01*
X138937000Y-94027000D01*
X138937000Y-94047000D01*
X138683000Y-94047000D01*
X138683000Y-94027000D01*
X137333750Y-94027000D01*
X137175000Y-94185750D01*
X137171928Y-94400000D01*
X137184188Y-94524482D01*
X137220498Y-94644180D01*
X137279463Y-94754494D01*
X137358815Y-94851185D01*
X137455506Y-94930537D01*
X137565820Y-94989502D01*
X137685518Y-95025812D01*
X137719874Y-95029196D01*
X137663492Y-95046299D01*
X137597304Y-95081678D01*
X137539289Y-95129289D01*
X137491678Y-95187304D01*
X137456299Y-95253492D01*
X137434513Y-95325311D01*
X137429884Y-95372315D01*
X134630911Y-95372315D01*
X134604999Y-95369763D01*
X134579087Y-95372315D01*
X134579078Y-95372315D01*
X134501556Y-95379950D01*
X134402087Y-95410124D01*
X134322251Y-95452797D01*
X134310414Y-95459124D01*
X134250199Y-95508541D01*
X134250196Y-95508544D01*
X134230065Y-95525065D01*
X134213544Y-95545196D01*
X131645201Y-98113540D01*
X131625065Y-98130065D01*
X131559123Y-98210416D01*
X131510124Y-98302088D01*
X131479950Y-98401557D01*
X131475984Y-98441829D01*
X131469762Y-98505000D01*
X131472315Y-98530920D01*
X131472316Y-100188491D01*
X131286641Y-100265400D01*
X131039981Y-100430213D01*
X130830213Y-100639981D01*
X130665400Y-100886641D01*
X130551875Y-101160716D01*
X130494000Y-101451672D01*
X130494000Y-101748328D01*
X130551875Y-102039284D01*
X130665400Y-102313359D01*
X130830213Y-102560019D01*
X131039981Y-102769787D01*
X131286641Y-102934600D01*
X131560716Y-103048125D01*
X131851672Y-103106000D01*
X132148328Y-103106000D01*
X132439284Y-103048125D01*
X132713359Y-102934600D01*
X132741990Y-102915469D01*
X133495074Y-102915469D01*
X134540000Y-103960395D01*
X135584926Y-102915469D01*
X135474079Y-102638286D01*
X135163160Y-102484911D01*
X134828295Y-102395140D01*
X134482350Y-102372424D01*
X134138620Y-102417634D01*
X133810315Y-102529034D01*
X133605921Y-102638286D01*
X133495074Y-102915469D01*
X132741990Y-102915469D01*
X132960019Y-102769787D01*
X133169787Y-102560019D01*
X133334600Y-102313359D01*
X133448125Y-102039284D01*
X133475830Y-101900000D01*
X140361928Y-101900000D01*
X140365000Y-102714250D01*
X140523750Y-102873000D01*
X141398000Y-102873000D01*
X141398000Y-101423750D01*
X141239250Y-101265000D01*
X141000000Y-101261928D01*
X140875518Y-101274188D01*
X140755820Y-101310498D01*
X140645506Y-101369463D01*
X140548815Y-101448815D01*
X140469463Y-101545506D01*
X140410498Y-101655820D01*
X140374188Y-101775518D01*
X140361928Y-101900000D01*
X133475830Y-101900000D01*
X133506000Y-101748328D01*
X133506000Y-101451672D01*
X133448125Y-101160716D01*
X133334600Y-100886641D01*
X133169787Y-100639981D01*
X132960019Y-100430213D01*
X132741991Y-100284531D01*
X133495074Y-100284531D01*
X133605921Y-100561714D01*
X133916840Y-100715089D01*
X134251705Y-100804860D01*
X134597650Y-100827576D01*
X134941380Y-100782366D01*
X135269685Y-100670966D01*
X135474079Y-100561714D01*
X135584926Y-100284531D01*
X134540000Y-99239605D01*
X133495074Y-100284531D01*
X132741991Y-100284531D01*
X132713359Y-100265400D01*
X132527685Y-100188492D01*
X132527685Y-98723574D01*
X132953537Y-98297722D01*
X132884911Y-98436840D01*
X132795140Y-98771705D01*
X132772424Y-99117650D01*
X132817634Y-99461380D01*
X132929034Y-99789685D01*
X133038286Y-99994079D01*
X133315469Y-100104926D01*
X134360395Y-99060000D01*
X134719605Y-99060000D01*
X135764531Y-100104926D01*
X136041714Y-99994079D01*
X136195089Y-99683160D01*
X136284860Y-99348295D01*
X136307576Y-99002350D01*
X136262366Y-98658620D01*
X136150966Y-98330315D01*
X136041714Y-98125921D01*
X135764531Y-98015074D01*
X134719605Y-99060000D01*
X134360395Y-99060000D01*
X134346253Y-99045858D01*
X134525858Y-98866253D01*
X134540000Y-98880395D01*
X135584926Y-97835469D01*
X135474079Y-97558286D01*
X135163160Y-97404911D01*
X134828295Y-97315140D01*
X134482350Y-97292424D01*
X134138620Y-97337634D01*
X133810315Y-97449034D01*
X133792936Y-97458323D01*
X134823575Y-96427685D01*
X137429884Y-96427685D01*
X137434513Y-96474689D01*
X137456299Y-96546508D01*
X137491678Y-96612696D01*
X137539289Y-96670711D01*
X137597304Y-96718322D01*
X137663492Y-96753701D01*
X137735311Y-96775487D01*
X137810000Y-96782843D01*
X139810000Y-96782843D01*
X139884689Y-96775487D01*
X139956508Y-96753701D01*
X140022696Y-96718322D01*
X140080711Y-96670711D01*
X140101946Y-96644835D01*
X142472315Y-99015204D01*
X142472316Y-100619884D01*
X142425311Y-100624513D01*
X142353492Y-100646299D01*
X142287304Y-100681678D01*
X142229289Y-100729289D01*
X142181678Y-100787304D01*
X142146299Y-100853492D01*
X142124513Y-100925311D01*
X142117157Y-101000000D01*
X142117157Y-101268542D01*
X142050000Y-101261928D01*
X141810750Y-101265000D01*
X141652000Y-101423750D01*
X141652000Y-102873000D01*
X142526250Y-102873000D01*
X142685000Y-102714250D01*
X142686250Y-102382843D01*
X143313750Y-102382843D01*
X143315000Y-102714250D01*
X143473750Y-102873000D01*
X144348000Y-102873000D01*
X144348000Y-101423750D01*
X144602000Y-101423750D01*
X144602000Y-102873000D01*
X145476250Y-102873000D01*
X145635000Y-102714250D01*
X145638072Y-101900000D01*
X145625812Y-101775518D01*
X145589502Y-101655820D01*
X145530537Y-101545506D01*
X145451185Y-101448815D01*
X145354494Y-101369463D01*
X145244180Y-101310498D01*
X145124482Y-101274188D01*
X145000000Y-101261928D01*
X144760750Y-101265000D01*
X144602000Y-101423750D01*
X144348000Y-101423750D01*
X144189250Y-101265000D01*
X143950000Y-101261928D01*
X143882843Y-101268542D01*
X143882843Y-101000000D01*
X143875487Y-100925311D01*
X143853701Y-100853492D01*
X143818322Y-100787304D01*
X143770711Y-100729289D01*
X143712696Y-100681678D01*
X143646508Y-100646299D01*
X143574689Y-100624513D01*
X143527685Y-100619884D01*
X143527685Y-99324315D01*
X146287451Y-99324315D01*
X146313370Y-99326868D01*
X146339289Y-99324315D01*
X146339292Y-99324315D01*
X146416814Y-99316680D01*
X146516283Y-99286506D01*
X146607954Y-99237507D01*
X146688305Y-99171565D01*
X146704831Y-99151428D01*
X146833416Y-99022843D01*
X148170000Y-99022843D01*
X148244689Y-99015487D01*
X148316508Y-98993701D01*
X148382696Y-98958322D01*
X148440711Y-98910711D01*
X148488322Y-98852696D01*
X148523701Y-98786508D01*
X148545487Y-98714689D01*
X148552843Y-98640000D01*
X148552843Y-96940000D01*
X148545487Y-96865311D01*
X148523701Y-96793492D01*
X148488322Y-96727304D01*
X148440711Y-96669289D01*
X148382696Y-96621678D01*
X148316508Y-96586299D01*
X148244689Y-96564513D01*
X148170000Y-96557157D01*
X148013367Y-96557157D01*
X148201355Y-96445178D01*
X148417588Y-96250269D01*
X148591641Y-96016920D01*
X148594000Y-96011967D01*
X148594000Y-103980146D01*
X148561733Y-104309230D01*
X148471926Y-104606684D01*
X148326056Y-104881025D01*
X148129675Y-105121813D01*
X147890265Y-105319871D01*
X147616948Y-105467654D01*
X147320128Y-105559535D01*
X146992218Y-105594000D01*
X143729352Y-105594000D01*
X143744180Y-105589502D01*
X143854494Y-105530537D01*
X143951185Y-105451185D01*
X144030537Y-105354494D01*
X144089502Y-105244180D01*
X144125812Y-105124482D01*
X144138072Y-105000000D01*
X144135000Y-104785750D01*
X144085581Y-104736331D01*
X144189250Y-104735000D01*
X144348000Y-104576250D01*
X144348000Y-103127000D01*
X144602000Y-103127000D01*
X144602000Y-104576250D01*
X144760750Y-104735000D01*
X145000000Y-104738072D01*
X145124482Y-104725812D01*
X145244180Y-104689502D01*
X145354494Y-104630537D01*
X145451185Y-104551185D01*
X145530537Y-104454494D01*
X145589502Y-104344180D01*
X145625812Y-104224482D01*
X145638072Y-104100000D01*
X145635000Y-103285750D01*
X145476250Y-103127000D01*
X144602000Y-103127000D01*
X144348000Y-103127000D01*
X143473750Y-103127000D01*
X143315000Y-103285750D01*
X143314703Y-103364585D01*
X143285750Y-103365000D01*
X143127000Y-103523750D01*
X143127000Y-104373000D01*
X143147000Y-104373000D01*
X143147000Y-104627000D01*
X143127000Y-104627000D01*
X143127000Y-104647000D01*
X142873000Y-104647000D01*
X142873000Y-104627000D01*
X142853000Y-104627000D01*
X142853000Y-104373000D01*
X142873000Y-104373000D01*
X142873000Y-103523750D01*
X142714250Y-103365000D01*
X142685297Y-103364585D01*
X142685000Y-103285750D01*
X142526250Y-103127000D01*
X141652000Y-103127000D01*
X141652000Y-104576250D01*
X141810750Y-104735000D01*
X141914419Y-104736331D01*
X141865000Y-104785750D01*
X141861928Y-105000000D01*
X141874188Y-105124482D01*
X141910498Y-105244180D01*
X141969463Y-105354494D01*
X142048815Y-105451185D01*
X142145506Y-105530537D01*
X142255820Y-105589502D01*
X142270648Y-105594000D01*
X135493160Y-105594000D01*
X135584926Y-105364531D01*
X134540000Y-104319605D01*
X133495074Y-105364531D01*
X133586840Y-105594000D01*
X130413160Y-105594000D01*
X130504926Y-105364531D01*
X129460000Y-104319605D01*
X128415074Y-105364531D01*
X128506840Y-105594000D01*
X117019854Y-105594000D01*
X116690770Y-105561733D01*
X116393316Y-105471926D01*
X116118975Y-105326056D01*
X115878187Y-105129675D01*
X115680129Y-104890265D01*
X115532346Y-104616948D01*
X115440465Y-104320128D01*
X115427592Y-104197650D01*
X127692424Y-104197650D01*
X127737634Y-104541380D01*
X127849034Y-104869685D01*
X127958286Y-105074079D01*
X128235469Y-105184926D01*
X129280395Y-104140000D01*
X129639605Y-104140000D01*
X130684531Y-105184926D01*
X130961714Y-105074079D01*
X131115089Y-104763160D01*
X131204860Y-104428295D01*
X131220004Y-104197650D01*
X132772424Y-104197650D01*
X132817634Y-104541380D01*
X132929034Y-104869685D01*
X133038286Y-105074079D01*
X133315469Y-105184926D01*
X134360395Y-104140000D01*
X134719605Y-104140000D01*
X135764531Y-105184926D01*
X136041714Y-105074079D01*
X136195089Y-104763160D01*
X136284860Y-104428295D01*
X136306417Y-104100000D01*
X140361928Y-104100000D01*
X140374188Y-104224482D01*
X140410498Y-104344180D01*
X140469463Y-104454494D01*
X140548815Y-104551185D01*
X140645506Y-104630537D01*
X140755820Y-104689502D01*
X140875518Y-104725812D01*
X141000000Y-104738072D01*
X141239250Y-104735000D01*
X141398000Y-104576250D01*
X141398000Y-103127000D01*
X140523750Y-103127000D01*
X140365000Y-103285750D01*
X140361928Y-104100000D01*
X136306417Y-104100000D01*
X136307576Y-104082350D01*
X136262366Y-103738620D01*
X136150966Y-103410315D01*
X136041714Y-103205921D01*
X135764531Y-103095074D01*
X134719605Y-104140000D01*
X134360395Y-104140000D01*
X133315469Y-103095074D01*
X133038286Y-103205921D01*
X132884911Y-103516840D01*
X132795140Y-103851705D01*
X132772424Y-104197650D01*
X131220004Y-104197650D01*
X131227576Y-104082350D01*
X131182366Y-103738620D01*
X131070966Y-103410315D01*
X130961714Y-103205921D01*
X130684531Y-103095074D01*
X129639605Y-104140000D01*
X129280395Y-104140000D01*
X128235469Y-103095074D01*
X127958286Y-103205921D01*
X127804911Y-103516840D01*
X127715140Y-103851705D01*
X127692424Y-104197650D01*
X115427592Y-104197650D01*
X115406000Y-103992218D01*
X115406000Y-102915469D01*
X128415074Y-102915469D01*
X129460000Y-103960395D01*
X130504926Y-102915469D01*
X130394079Y-102638286D01*
X130083160Y-102484911D01*
X129748295Y-102395140D01*
X129402350Y-102372424D01*
X129058620Y-102417634D01*
X128730315Y-102529034D01*
X128525921Y-102638286D01*
X128415074Y-102915469D01*
X115406000Y-102915469D01*
X115406000Y-100284531D01*
X128415074Y-100284531D01*
X128525921Y-100561714D01*
X128836840Y-100715089D01*
X129171705Y-100804860D01*
X129517650Y-100827576D01*
X129861380Y-100782366D01*
X130189685Y-100670966D01*
X130394079Y-100561714D01*
X130504926Y-100284531D01*
X129460000Y-99239605D01*
X128415074Y-100284531D01*
X115406000Y-100284531D01*
X115406000Y-98171537D01*
X115443175Y-98294099D01*
X115568359Y-98556920D01*
X115742412Y-98790269D01*
X115958645Y-98985178D01*
X116208748Y-99134157D01*
X116483109Y-99231481D01*
X116713000Y-99110814D01*
X116713000Y-97917000D01*
X116967000Y-97917000D01*
X116967000Y-99110814D01*
X117196891Y-99231481D01*
X117471252Y-99134157D01*
X117498963Y-99117650D01*
X127692424Y-99117650D01*
X127737634Y-99461380D01*
X127849034Y-99789685D01*
X127958286Y-99994079D01*
X128235469Y-100104926D01*
X129280395Y-99060000D01*
X129639605Y-99060000D01*
X130684531Y-100104926D01*
X130961714Y-99994079D01*
X131115089Y-99683160D01*
X131204860Y-99348295D01*
X131227576Y-99002350D01*
X131182366Y-98658620D01*
X131070966Y-98330315D01*
X130961714Y-98125921D01*
X130684531Y-98015074D01*
X129639605Y-99060000D01*
X129280395Y-99060000D01*
X128235469Y-98015074D01*
X127958286Y-98125921D01*
X127804911Y-98436840D01*
X127715140Y-98771705D01*
X127692424Y-99117650D01*
X117498963Y-99117650D01*
X117721355Y-98985178D01*
X117937588Y-98790269D01*
X118111641Y-98556920D01*
X118236825Y-98294099D01*
X118281476Y-98146890D01*
X118160155Y-97917000D01*
X116967000Y-97917000D01*
X116713000Y-97917000D01*
X116693000Y-97917000D01*
X116693000Y-97835469D01*
X128415074Y-97835469D01*
X129460000Y-98880395D01*
X130504926Y-97835469D01*
X130394079Y-97558286D01*
X130083160Y-97404911D01*
X129748295Y-97315140D01*
X129402350Y-97292424D01*
X129058620Y-97337634D01*
X128730315Y-97449034D01*
X128525921Y-97558286D01*
X128415074Y-97835469D01*
X116693000Y-97835469D01*
X116693000Y-97663000D01*
X116713000Y-97663000D01*
X116713000Y-97643000D01*
X116967000Y-97643000D01*
X116967000Y-97663000D01*
X118160155Y-97663000D01*
X118281476Y-97433110D01*
X118236825Y-97285901D01*
X118111641Y-97023080D01*
X117937588Y-96789731D01*
X117721355Y-96594822D01*
X117471252Y-96445843D01*
X117342018Y-96400000D01*
X121171928Y-96400000D01*
X121184188Y-96524482D01*
X121220498Y-96644180D01*
X121279463Y-96754494D01*
X121358815Y-96851185D01*
X121455506Y-96930537D01*
X121565820Y-96989502D01*
X121685518Y-97025812D01*
X121810000Y-97038072D01*
X122524250Y-97035000D01*
X122683000Y-96876250D01*
X122683000Y-96027000D01*
X122937000Y-96027000D01*
X122937000Y-96876250D01*
X123095750Y-97035000D01*
X123810000Y-97038072D01*
X123934482Y-97025812D01*
X124054180Y-96989502D01*
X124164494Y-96930537D01*
X124261185Y-96851185D01*
X124340537Y-96754494D01*
X124399502Y-96644180D01*
X124435812Y-96524482D01*
X124448072Y-96400000D01*
X124445000Y-96185750D01*
X124286250Y-96027000D01*
X122937000Y-96027000D01*
X122683000Y-96027000D01*
X121333750Y-96027000D01*
X121175000Y-96185750D01*
X121171928Y-96400000D01*
X117342018Y-96400000D01*
X117308832Y-96388228D01*
X117423097Y-96340898D01*
X117624717Y-96206180D01*
X117796180Y-96034717D01*
X117930898Y-95833097D01*
X117962832Y-95756000D01*
X118720154Y-95756000D01*
X118745000Y-95758447D01*
X118769846Y-95756000D01*
X118769854Y-95756000D01*
X118844193Y-95748678D01*
X118939575Y-95719745D01*
X119027479Y-95672759D01*
X119104527Y-95609527D01*
X119120376Y-95590215D01*
X120304592Y-94406000D01*
X121427748Y-94406000D01*
X121434513Y-94474689D01*
X121456299Y-94546508D01*
X121491678Y-94612696D01*
X121539289Y-94670711D01*
X121597304Y-94718322D01*
X121663492Y-94753701D01*
X121719874Y-94770804D01*
X121685518Y-94774188D01*
X121565820Y-94810498D01*
X121455506Y-94869463D01*
X121358815Y-94948815D01*
X121279463Y-95045506D01*
X121220498Y-95155820D01*
X121184188Y-95275518D01*
X121171928Y-95400000D01*
X121175000Y-95614250D01*
X121333750Y-95773000D01*
X122683000Y-95773000D01*
X122683000Y-95753000D01*
X122937000Y-95753000D01*
X122937000Y-95773000D01*
X124286250Y-95773000D01*
X124445000Y-95614250D01*
X124448072Y-95400000D01*
X124435812Y-95275518D01*
X124399502Y-95155820D01*
X124340537Y-95045506D01*
X124261185Y-94948815D01*
X124164494Y-94869463D01*
X124054180Y-94810498D01*
X123934482Y-94774188D01*
X123900126Y-94770804D01*
X123956508Y-94753701D01*
X124022696Y-94718322D01*
X124080711Y-94670711D01*
X124128322Y-94612696D01*
X124163701Y-94546508D01*
X124185487Y-94474689D01*
X124192843Y-94400000D01*
X124192843Y-93400000D01*
X124185487Y-93325311D01*
X124163701Y-93253492D01*
X124128322Y-93187304D01*
X124080711Y-93129289D01*
X124022696Y-93081678D01*
X123956508Y-93046299D01*
X123884689Y-93024513D01*
X123810000Y-93017157D01*
X121810000Y-93017157D01*
X121735311Y-93024513D01*
X121663492Y-93046299D01*
X121597304Y-93081678D01*
X121539289Y-93129289D01*
X121491678Y-93187304D01*
X121456299Y-93253492D01*
X121434513Y-93325311D01*
X121427748Y-93394000D01*
X120119845Y-93394000D01*
X120094999Y-93391553D01*
X120070153Y-93394000D01*
X120070146Y-93394000D01*
X120009229Y-93400000D01*
X119995806Y-93401322D01*
X119973607Y-93408056D01*
X119900425Y-93430255D01*
X119812521Y-93477241D01*
X119735473Y-93540473D01*
X119719628Y-93559780D01*
X118535409Y-94744000D01*
X117962832Y-94744000D01*
X117930898Y-94666903D01*
X117796180Y-94465283D01*
X117624717Y-94293820D01*
X117423097Y-94159102D01*
X117199069Y-94066307D01*
X116961243Y-94019000D01*
X116718757Y-94019000D01*
X116480931Y-94066307D01*
X116256903Y-94159102D01*
X116055283Y-94293820D01*
X115883820Y-94465283D01*
X115749102Y-94666903D01*
X115656307Y-94890931D01*
X115609000Y-95128757D01*
X115609000Y-95371243D01*
X115656307Y-95609069D01*
X115749102Y-95833097D01*
X115883820Y-96034717D01*
X116055283Y-96206180D01*
X116256903Y-96340898D01*
X116371168Y-96388228D01*
X116208748Y-96445843D01*
X115958645Y-96594822D01*
X115742412Y-96789731D01*
X115568359Y-97023080D01*
X115443175Y-97285901D01*
X115406000Y-97408463D01*
X115406000Y-92588757D01*
X115609000Y-92588757D01*
X115609000Y-92831243D01*
X115656307Y-93069069D01*
X115749102Y-93293097D01*
X115883820Y-93494717D01*
X116055283Y-93666180D01*
X116256903Y-93800898D01*
X116480931Y-93893693D01*
X116718757Y-93941000D01*
X116961243Y-93941000D01*
X117199069Y-93893693D01*
X117423097Y-93800898D01*
X117624717Y-93666180D01*
X117796180Y-93494717D01*
X117930898Y-93293097D01*
X117962832Y-93216000D01*
X119355154Y-93216000D01*
X119380000Y-93218447D01*
X119404846Y-93216000D01*
X119404854Y-93216000D01*
X119479193Y-93208678D01*
X119574575Y-93179745D01*
X119662479Y-93132759D01*
X119739527Y-93069527D01*
X119755376Y-93050215D01*
X120399592Y-92406000D01*
X121427748Y-92406000D01*
X121434513Y-92474689D01*
X121456299Y-92546508D01*
X121491678Y-92612696D01*
X121539289Y-92670711D01*
X121597304Y-92718322D01*
X121663492Y-92753701D01*
X121735311Y-92775487D01*
X121810000Y-92782843D01*
X123810000Y-92782843D01*
X123884689Y-92775487D01*
X123956508Y-92753701D01*
X124022696Y-92718322D01*
X124080711Y-92670711D01*
X124128322Y-92612696D01*
X124163701Y-92546508D01*
X124185487Y-92474689D01*
X124192843Y-92400000D01*
X124192843Y-91400000D01*
X124185487Y-91325311D01*
X124163701Y-91253492D01*
X124128322Y-91187304D01*
X124080711Y-91129289D01*
X124022696Y-91081678D01*
X123956508Y-91046299D01*
X123884689Y-91024513D01*
X123810000Y-91017157D01*
X121810000Y-91017157D01*
X121735311Y-91024513D01*
X121663492Y-91046299D01*
X121597304Y-91081678D01*
X121539289Y-91129289D01*
X121491678Y-91187304D01*
X121456299Y-91253492D01*
X121434513Y-91325311D01*
X121427748Y-91394000D01*
X120214846Y-91394000D01*
X120190000Y-91391553D01*
X120165154Y-91394000D01*
X120165146Y-91394000D01*
X120090807Y-91401322D01*
X119995425Y-91430255D01*
X119907521Y-91477241D01*
X119830473Y-91540473D01*
X119814628Y-91559780D01*
X119170409Y-92204000D01*
X117962832Y-92204000D01*
X117930898Y-92126903D01*
X117796180Y-91925283D01*
X117624717Y-91753820D01*
X117423097Y-91619102D01*
X117199069Y-91526307D01*
X116961243Y-91479000D01*
X116718757Y-91479000D01*
X116480931Y-91526307D01*
X116256903Y-91619102D01*
X116055283Y-91753820D01*
X115883820Y-91925283D01*
X115749102Y-92126903D01*
X115656307Y-92350931D01*
X115609000Y-92588757D01*
X115406000Y-92588757D01*
X115406000Y-90048757D01*
X115609000Y-90048757D01*
X115609000Y-90291243D01*
X115656307Y-90529069D01*
X115749102Y-90753097D01*
X115883820Y-90954717D01*
X116055283Y-91126180D01*
X116256903Y-91260898D01*
X116480931Y-91353693D01*
X116718757Y-91401000D01*
X116961243Y-91401000D01*
X117199069Y-91353693D01*
X117423097Y-91260898D01*
X117624717Y-91126180D01*
X117796180Y-90954717D01*
X117930898Y-90753097D01*
X118023693Y-90529069D01*
X118048173Y-90406000D01*
X121427748Y-90406000D01*
X121434513Y-90474689D01*
X121456299Y-90546508D01*
X121491678Y-90612696D01*
X121539289Y-90670711D01*
X121597304Y-90718322D01*
X121663492Y-90753701D01*
X121735311Y-90775487D01*
X121810000Y-90782843D01*
X123810000Y-90782843D01*
X123884689Y-90775487D01*
X123956508Y-90753701D01*
X124022696Y-90718322D01*
X124080711Y-90670711D01*
X124128322Y-90612696D01*
X124163701Y-90546508D01*
X124185487Y-90474689D01*
X124192843Y-90400000D01*
X124192843Y-89400000D01*
X137427157Y-89400000D01*
X137427157Y-90400000D01*
X137434513Y-90474689D01*
X137456299Y-90546508D01*
X137491678Y-90612696D01*
X137539289Y-90670711D01*
X137597304Y-90718322D01*
X137663492Y-90753701D01*
X137735311Y-90775487D01*
X137810000Y-90782843D01*
X139810000Y-90782843D01*
X139884689Y-90775487D01*
X139956508Y-90753701D01*
X140022696Y-90718322D01*
X140080711Y-90670711D01*
X140128322Y-90612696D01*
X140163701Y-90546508D01*
X140185487Y-90474689D01*
X140192252Y-90406000D01*
X141125409Y-90406000D01*
X142499628Y-91780220D01*
X142515473Y-91799527D01*
X142592521Y-91862759D01*
X142662194Y-91900000D01*
X142680425Y-91909745D01*
X142775807Y-91938678D01*
X142875000Y-91948448D01*
X142899854Y-91946000D01*
X144755154Y-91946000D01*
X144780000Y-91948447D01*
X144804846Y-91946000D01*
X144804854Y-91946000D01*
X144879193Y-91938678D01*
X144974575Y-91909745D01*
X145062479Y-91862759D01*
X145139527Y-91799527D01*
X145155376Y-91780215D01*
X146215451Y-90720141D01*
X146229102Y-90753097D01*
X146363820Y-90954717D01*
X146535283Y-91126180D01*
X146736903Y-91260898D01*
X146960931Y-91353693D01*
X147198757Y-91401000D01*
X147441243Y-91401000D01*
X147679069Y-91353693D01*
X147903097Y-91260898D01*
X148104717Y-91126180D01*
X148276180Y-90954717D01*
X148410898Y-90753097D01*
X148503693Y-90529069D01*
X148551000Y-90291243D01*
X148551000Y-90048757D01*
X148503693Y-89810931D01*
X148410898Y-89586903D01*
X148276180Y-89385283D01*
X148104717Y-89213820D01*
X147903097Y-89079102D01*
X147679069Y-88986307D01*
X147441243Y-88939000D01*
X147198757Y-88939000D01*
X146960931Y-88986307D01*
X146736903Y-89079102D01*
X146535283Y-89213820D01*
X146363820Y-89385283D01*
X146229102Y-89586903D01*
X146197168Y-89664000D01*
X146074845Y-89664000D01*
X146049999Y-89661553D01*
X146025153Y-89664000D01*
X146025146Y-89664000D01*
X145960694Y-89670348D01*
X145950806Y-89671322D01*
X145855425Y-89700255D01*
X145767521Y-89747241D01*
X145690473Y-89810473D01*
X145674629Y-89829779D01*
X144570409Y-90934000D01*
X143084592Y-90934000D01*
X142667047Y-90516455D01*
X142785000Y-90528072D01*
X143224250Y-90525000D01*
X143383000Y-90366250D01*
X143383000Y-89429500D01*
X143637000Y-89429500D01*
X143637000Y-90366250D01*
X143795750Y-90525000D01*
X144235000Y-90528072D01*
X144359482Y-90515812D01*
X144479180Y-90479502D01*
X144589494Y-90420537D01*
X144686185Y-90341185D01*
X144765537Y-90244494D01*
X144824502Y-90134180D01*
X144860812Y-90014482D01*
X144873072Y-89890000D01*
X144870000Y-89588250D01*
X144711250Y-89429500D01*
X143637000Y-89429500D01*
X143383000Y-89429500D01*
X142308750Y-89429500D01*
X142150000Y-89588250D01*
X142146928Y-89890000D01*
X142158545Y-90007954D01*
X141710376Y-89559785D01*
X141694527Y-89540473D01*
X141617479Y-89477241D01*
X141529575Y-89430255D01*
X141434193Y-89401322D01*
X141359854Y-89394000D01*
X141359846Y-89394000D01*
X141335000Y-89391553D01*
X141310154Y-89394000D01*
X140192252Y-89394000D01*
X140185487Y-89325311D01*
X140163701Y-89253492D01*
X140128322Y-89187304D01*
X140080711Y-89129289D01*
X140022696Y-89081678D01*
X139956508Y-89046299D01*
X139884689Y-89024513D01*
X139810000Y-89017157D01*
X137810000Y-89017157D01*
X137735311Y-89024513D01*
X137663492Y-89046299D01*
X137597304Y-89081678D01*
X137539289Y-89129289D01*
X137491678Y-89187304D01*
X137456299Y-89253492D01*
X137434513Y-89325311D01*
X137427157Y-89400000D01*
X124192843Y-89400000D01*
X124185487Y-89325311D01*
X124163701Y-89253492D01*
X124128322Y-89187304D01*
X124080711Y-89129289D01*
X124022696Y-89081678D01*
X123956508Y-89046299D01*
X123884689Y-89024513D01*
X123810000Y-89017157D01*
X121810000Y-89017157D01*
X121735311Y-89024513D01*
X121663492Y-89046299D01*
X121597304Y-89081678D01*
X121539289Y-89129289D01*
X121491678Y-89187304D01*
X121456299Y-89253492D01*
X121434513Y-89325311D01*
X121427748Y-89394000D01*
X117802005Y-89394000D01*
X117796180Y-89385283D01*
X117624717Y-89213820D01*
X117423097Y-89079102D01*
X117199069Y-88986307D01*
X116961243Y-88939000D01*
X116718757Y-88939000D01*
X116480931Y-88986307D01*
X116256903Y-89079102D01*
X116055283Y-89213820D01*
X115883820Y-89385283D01*
X115749102Y-89586903D01*
X115656307Y-89810931D01*
X115609000Y-90048757D01*
X115406000Y-90048757D01*
X115406000Y-87508757D01*
X115609000Y-87508757D01*
X115609000Y-87751243D01*
X115656307Y-87989069D01*
X115749102Y-88213097D01*
X115883820Y-88414717D01*
X116055283Y-88586180D01*
X116256903Y-88720898D01*
X116480931Y-88813693D01*
X116718757Y-88861000D01*
X116961243Y-88861000D01*
X117199069Y-88813693D01*
X117423097Y-88720898D01*
X117624717Y-88586180D01*
X117796180Y-88414717D01*
X117802005Y-88406000D01*
X121427748Y-88406000D01*
X121434513Y-88474689D01*
X121456299Y-88546508D01*
X121491678Y-88612696D01*
X121539289Y-88670711D01*
X121597304Y-88718322D01*
X121663492Y-88753701D01*
X121735311Y-88775487D01*
X121810000Y-88782843D01*
X123810000Y-88782843D01*
X123884689Y-88775487D01*
X123956508Y-88753701D01*
X124022696Y-88718322D01*
X124080711Y-88670711D01*
X124128322Y-88612696D01*
X124163701Y-88546508D01*
X124185487Y-88474689D01*
X124192843Y-88400000D01*
X124192843Y-87400000D01*
X137427157Y-87400000D01*
X137427157Y-88400000D01*
X137434513Y-88474689D01*
X137456299Y-88546508D01*
X137491678Y-88612696D01*
X137539289Y-88670711D01*
X137597304Y-88718322D01*
X137663492Y-88753701D01*
X137735311Y-88775487D01*
X137810000Y-88782843D01*
X139810000Y-88782843D01*
X139884689Y-88775487D01*
X139956508Y-88753701D01*
X140022696Y-88718322D01*
X140080711Y-88670711D01*
X140128322Y-88612696D01*
X140163701Y-88546508D01*
X140185487Y-88474689D01*
X140189553Y-88433400D01*
X142215500Y-88433400D01*
X142195498Y-88470820D01*
X142159188Y-88590518D01*
X142146928Y-88715000D01*
X142150000Y-89016750D01*
X142308750Y-89175500D01*
X143383000Y-89175500D01*
X143383000Y-89155500D01*
X143637000Y-89155500D01*
X143637000Y-89175500D01*
X144711250Y-89175500D01*
X144870000Y-89016750D01*
X144873072Y-88715000D01*
X144860812Y-88590518D01*
X144824502Y-88470820D01*
X144765537Y-88360506D01*
X144686185Y-88263815D01*
X144589494Y-88184463D01*
X144550089Y-88163400D01*
X146208517Y-88163400D01*
X146229102Y-88213097D01*
X146363820Y-88414717D01*
X146535283Y-88586180D01*
X146736903Y-88720898D01*
X146960931Y-88813693D01*
X147198757Y-88861000D01*
X147441243Y-88861000D01*
X147679069Y-88813693D01*
X147903097Y-88720898D01*
X148104717Y-88586180D01*
X148276180Y-88414717D01*
X148410898Y-88213097D01*
X148503693Y-87989069D01*
X148551000Y-87751243D01*
X148551000Y-87508757D01*
X148503693Y-87270931D01*
X148410898Y-87046903D01*
X148276180Y-86845283D01*
X148104717Y-86673820D01*
X147903097Y-86539102D01*
X147679069Y-86446307D01*
X147441243Y-86399000D01*
X147198757Y-86399000D01*
X146960931Y-86446307D01*
X146736903Y-86539102D01*
X146535283Y-86673820D01*
X146363820Y-86845283D01*
X146229102Y-87046903D01*
X146208517Y-87096600D01*
X144617843Y-87096600D01*
X144617843Y-86890000D01*
X144605683Y-86766538D01*
X144569671Y-86647821D01*
X144511190Y-86538411D01*
X144432488Y-86442512D01*
X144336589Y-86363810D01*
X144227179Y-86305329D01*
X144108462Y-86269317D01*
X143985000Y-86257157D01*
X143035000Y-86257157D01*
X142911538Y-86269317D01*
X142792821Y-86305329D01*
X142683411Y-86363810D01*
X142587512Y-86442512D01*
X142508810Y-86538411D01*
X142450329Y-86647821D01*
X142414317Y-86766538D01*
X142402157Y-86890000D01*
X142402157Y-87366600D01*
X140189553Y-87366600D01*
X140185487Y-87325311D01*
X140163701Y-87253492D01*
X140128322Y-87187304D01*
X140080711Y-87129289D01*
X140022696Y-87081678D01*
X139956508Y-87046299D01*
X139884689Y-87024513D01*
X139810000Y-87017157D01*
X137810000Y-87017157D01*
X137735311Y-87024513D01*
X137663492Y-87046299D01*
X137597304Y-87081678D01*
X137539289Y-87129289D01*
X137491678Y-87187304D01*
X137456299Y-87253492D01*
X137434513Y-87325311D01*
X137427157Y-87400000D01*
X124192843Y-87400000D01*
X124185487Y-87325311D01*
X124163701Y-87253492D01*
X124128322Y-87187304D01*
X124080711Y-87129289D01*
X124022696Y-87081678D01*
X123956508Y-87046299D01*
X123884689Y-87024513D01*
X123810000Y-87017157D01*
X121810000Y-87017157D01*
X121735311Y-87024513D01*
X121663492Y-87046299D01*
X121597304Y-87081678D01*
X121539289Y-87129289D01*
X121491678Y-87187304D01*
X121456299Y-87253492D01*
X121434513Y-87325311D01*
X121427748Y-87394000D01*
X118048173Y-87394000D01*
X118023693Y-87270931D01*
X117930898Y-87046903D01*
X117796180Y-86845283D01*
X117624717Y-86673820D01*
X117423097Y-86539102D01*
X117199069Y-86446307D01*
X116961243Y-86399000D01*
X116718757Y-86399000D01*
X116480931Y-86446307D01*
X116256903Y-86539102D01*
X116055283Y-86673820D01*
X115883820Y-86845283D01*
X115749102Y-87046903D01*
X115656307Y-87270931D01*
X115609000Y-87508757D01*
X115406000Y-87508757D01*
X115406000Y-84968757D01*
X115609000Y-84968757D01*
X115609000Y-85211243D01*
X115656307Y-85449069D01*
X115749102Y-85673097D01*
X115883820Y-85874717D01*
X116055283Y-86046180D01*
X116256903Y-86180898D01*
X116480931Y-86273693D01*
X116718757Y-86321000D01*
X116961243Y-86321000D01*
X117199069Y-86273693D01*
X117423097Y-86180898D01*
X117624717Y-86046180D01*
X117796180Y-85874717D01*
X117930898Y-85673097D01*
X117962832Y-85596000D01*
X119805409Y-85596000D01*
X120449628Y-86240220D01*
X120465473Y-86259527D01*
X120542521Y-86322759D01*
X120630425Y-86369745D01*
X120725807Y-86398678D01*
X120800146Y-86406000D01*
X120800154Y-86406000D01*
X120825000Y-86408447D01*
X120849846Y-86406000D01*
X121427748Y-86406000D01*
X121434513Y-86474689D01*
X121456299Y-86546508D01*
X121491678Y-86612696D01*
X121539289Y-86670711D01*
X121597304Y-86718322D01*
X121663492Y-86753701D01*
X121735311Y-86775487D01*
X121810000Y-86782843D01*
X123810000Y-86782843D01*
X123884689Y-86775487D01*
X123956508Y-86753701D01*
X124022696Y-86718322D01*
X124080711Y-86670711D01*
X124128322Y-86612696D01*
X124163701Y-86546508D01*
X124185487Y-86474689D01*
X124192843Y-86400000D01*
X124192843Y-85400000D01*
X137427157Y-85400000D01*
X137427157Y-86400000D01*
X137434513Y-86474689D01*
X137456299Y-86546508D01*
X137491678Y-86612696D01*
X137539289Y-86670711D01*
X137597304Y-86718322D01*
X137663492Y-86753701D01*
X137735311Y-86775487D01*
X137810000Y-86782843D01*
X139810000Y-86782843D01*
X139884689Y-86775487D01*
X139956508Y-86753701D01*
X140022696Y-86718322D01*
X140080711Y-86670711D01*
X140128322Y-86612696D01*
X140163701Y-86546508D01*
X140185487Y-86474689D01*
X140192252Y-86406000D01*
X142167154Y-86406000D01*
X142192000Y-86408447D01*
X142216846Y-86406000D01*
X142216854Y-86406000D01*
X142291193Y-86398678D01*
X142386575Y-86369745D01*
X142474479Y-86322759D01*
X142551527Y-86259527D01*
X142567376Y-86240215D01*
X143211592Y-85596000D01*
X146197168Y-85596000D01*
X146229102Y-85673097D01*
X146363820Y-85874717D01*
X146535283Y-86046180D01*
X146736903Y-86180898D01*
X146960931Y-86273693D01*
X147198757Y-86321000D01*
X147441243Y-86321000D01*
X147679069Y-86273693D01*
X147903097Y-86180898D01*
X148104717Y-86046180D01*
X148276180Y-85874717D01*
X148410898Y-85673097D01*
X148503693Y-85449069D01*
X148551000Y-85211243D01*
X148551000Y-84968757D01*
X148503693Y-84730931D01*
X148410898Y-84506903D01*
X148276180Y-84305283D01*
X148104717Y-84133820D01*
X147903097Y-83999102D01*
X147679069Y-83906307D01*
X147441243Y-83859000D01*
X147198757Y-83859000D01*
X146960931Y-83906307D01*
X146736903Y-83999102D01*
X146535283Y-84133820D01*
X146363820Y-84305283D01*
X146229102Y-84506903D01*
X146197168Y-84584000D01*
X143026846Y-84584000D01*
X143002000Y-84581553D01*
X142977154Y-84584000D01*
X142977146Y-84584000D01*
X142902807Y-84591322D01*
X142807425Y-84620255D01*
X142719521Y-84667241D01*
X142642473Y-84730473D01*
X142626628Y-84749780D01*
X141982409Y-85394000D01*
X140192252Y-85394000D01*
X140185487Y-85325311D01*
X140163701Y-85253492D01*
X140128322Y-85187304D01*
X140080711Y-85129289D01*
X140022696Y-85081678D01*
X139956508Y-85046299D01*
X139884689Y-85024513D01*
X139810000Y-85017157D01*
X137810000Y-85017157D01*
X137735311Y-85024513D01*
X137663492Y-85046299D01*
X137597304Y-85081678D01*
X137539289Y-85129289D01*
X137491678Y-85187304D01*
X137456299Y-85253492D01*
X137434513Y-85325311D01*
X137427157Y-85400000D01*
X124192843Y-85400000D01*
X124185487Y-85325311D01*
X124163701Y-85253492D01*
X124128322Y-85187304D01*
X124080711Y-85129289D01*
X124022696Y-85081678D01*
X123956508Y-85046299D01*
X123884689Y-85024513D01*
X123810000Y-85017157D01*
X121810000Y-85017157D01*
X121735311Y-85024513D01*
X121663492Y-85046299D01*
X121597304Y-85081678D01*
X121539289Y-85129289D01*
X121491678Y-85187304D01*
X121456299Y-85253492D01*
X121434513Y-85325311D01*
X121427748Y-85394000D01*
X121034592Y-85394000D01*
X120390376Y-84749785D01*
X120374527Y-84730473D01*
X120297479Y-84667241D01*
X120209575Y-84620255D01*
X120114193Y-84591322D01*
X120039854Y-84584000D01*
X120039846Y-84584000D01*
X120015000Y-84581553D01*
X119990154Y-84584000D01*
X117962832Y-84584000D01*
X117930898Y-84506903D01*
X117796180Y-84305283D01*
X117624717Y-84133820D01*
X117423097Y-83999102D01*
X117199069Y-83906307D01*
X116961243Y-83859000D01*
X116718757Y-83859000D01*
X116480931Y-83906307D01*
X116256903Y-83999102D01*
X116055283Y-84133820D01*
X115883820Y-84305283D01*
X115749102Y-84506903D01*
X115656307Y-84730931D01*
X115609000Y-84968757D01*
X115406000Y-84968757D01*
X115406000Y-81114473D01*
X115459463Y-81214494D01*
X115538815Y-81311185D01*
X115635506Y-81390537D01*
X115745820Y-81449502D01*
X115865518Y-81485812D01*
X115990000Y-81498072D01*
X116200294Y-81496927D01*
X116055283Y-81593820D01*
X115883820Y-81765283D01*
X115749102Y-81966903D01*
X115656307Y-82190931D01*
X115609000Y-82428757D01*
X115609000Y-82671243D01*
X115656307Y-82909069D01*
X115749102Y-83133097D01*
X115883820Y-83334717D01*
X116055283Y-83506180D01*
X116256903Y-83640898D01*
X116480931Y-83733693D01*
X116718757Y-83781000D01*
X116961243Y-83781000D01*
X117199069Y-83733693D01*
X117423097Y-83640898D01*
X117624717Y-83506180D01*
X117796180Y-83334717D01*
X117930898Y-83133097D01*
X117962832Y-83056000D01*
X119170409Y-83056000D01*
X120354628Y-84240220D01*
X120370473Y-84259527D01*
X120447521Y-84322759D01*
X120535425Y-84369745D01*
X120608607Y-84391944D01*
X120630806Y-84398678D01*
X120640694Y-84399652D01*
X120705146Y-84406000D01*
X120705153Y-84406000D01*
X120729999Y-84408447D01*
X120754845Y-84406000D01*
X121427748Y-84406000D01*
X121434513Y-84474689D01*
X121456299Y-84546508D01*
X121491678Y-84612696D01*
X121539289Y-84670711D01*
X121597304Y-84718322D01*
X121663492Y-84753701D01*
X121735311Y-84775487D01*
X121810000Y-84782843D01*
X123810000Y-84782843D01*
X123884689Y-84775487D01*
X123956508Y-84753701D01*
X124022696Y-84718322D01*
X124080711Y-84670711D01*
X124128322Y-84612696D01*
X124163701Y-84546508D01*
X124185487Y-84474689D01*
X124192843Y-84400000D01*
X124192843Y-83400000D01*
X137427157Y-83400000D01*
X137427157Y-84400000D01*
X137434513Y-84474689D01*
X137456299Y-84546508D01*
X137491678Y-84612696D01*
X137539289Y-84670711D01*
X137597304Y-84718322D01*
X137663492Y-84753701D01*
X137735311Y-84775487D01*
X137810000Y-84782843D01*
X139810000Y-84782843D01*
X139884689Y-84775487D01*
X139956508Y-84753701D01*
X140022696Y-84718322D01*
X140080711Y-84670711D01*
X140128322Y-84612696D01*
X140163701Y-84546508D01*
X140185487Y-84474689D01*
X140192252Y-84406000D01*
X143405154Y-84406000D01*
X143430000Y-84408447D01*
X143454846Y-84406000D01*
X143454854Y-84406000D01*
X143529193Y-84398678D01*
X143624575Y-84369745D01*
X143712479Y-84322759D01*
X143789527Y-84259527D01*
X143805376Y-84240215D01*
X144989592Y-83056000D01*
X146197168Y-83056000D01*
X146229102Y-83133097D01*
X146363820Y-83334717D01*
X146535283Y-83506180D01*
X146736903Y-83640898D01*
X146960931Y-83733693D01*
X147198757Y-83781000D01*
X147441243Y-83781000D01*
X147679069Y-83733693D01*
X147903097Y-83640898D01*
X148104717Y-83506180D01*
X148276180Y-83334717D01*
X148410898Y-83133097D01*
X148503693Y-82909069D01*
X148551000Y-82671243D01*
X148551000Y-82428757D01*
X148503693Y-82190931D01*
X148410898Y-81966903D01*
X148276180Y-81765283D01*
X148104717Y-81593820D01*
X147903097Y-81459102D01*
X147679069Y-81366307D01*
X147441243Y-81319000D01*
X147198757Y-81319000D01*
X146960931Y-81366307D01*
X146736903Y-81459102D01*
X146535283Y-81593820D01*
X146363820Y-81765283D01*
X146229102Y-81966903D01*
X146197168Y-82044000D01*
X144804845Y-82044000D01*
X144779999Y-82041553D01*
X144755153Y-82044000D01*
X144755146Y-82044000D01*
X144690694Y-82050348D01*
X144680806Y-82051322D01*
X144658607Y-82058056D01*
X144585425Y-82080255D01*
X144497521Y-82127241D01*
X144420473Y-82190473D01*
X144404628Y-82209780D01*
X143220409Y-83394000D01*
X140192252Y-83394000D01*
X140185487Y-83325311D01*
X140163701Y-83253492D01*
X140128322Y-83187304D01*
X140080711Y-83129289D01*
X140022696Y-83081678D01*
X139956508Y-83046299D01*
X139884689Y-83024513D01*
X139810000Y-83017157D01*
X137810000Y-83017157D01*
X137735311Y-83024513D01*
X137663492Y-83046299D01*
X137597304Y-83081678D01*
X137539289Y-83129289D01*
X137491678Y-83187304D01*
X137456299Y-83253492D01*
X137434513Y-83325311D01*
X137427157Y-83400000D01*
X124192843Y-83400000D01*
X124185487Y-83325311D01*
X124163701Y-83253492D01*
X124128322Y-83187304D01*
X124080711Y-83129289D01*
X124022696Y-83081678D01*
X123956508Y-83046299D01*
X123900126Y-83029196D01*
X123934482Y-83025812D01*
X124054180Y-82989502D01*
X124164494Y-82930537D01*
X124261185Y-82851185D01*
X124340537Y-82754494D01*
X124399502Y-82644180D01*
X124435812Y-82524482D01*
X124448072Y-82400000D01*
X124445000Y-82185750D01*
X124286250Y-82027000D01*
X122937000Y-82027000D01*
X122937000Y-82047000D01*
X122683000Y-82047000D01*
X122683000Y-82027000D01*
X121333750Y-82027000D01*
X121175000Y-82185750D01*
X121171928Y-82400000D01*
X121184188Y-82524482D01*
X121220498Y-82644180D01*
X121279463Y-82754494D01*
X121358815Y-82851185D01*
X121455506Y-82930537D01*
X121565820Y-82989502D01*
X121685518Y-83025812D01*
X121719874Y-83029196D01*
X121663492Y-83046299D01*
X121597304Y-83081678D01*
X121539289Y-83129289D01*
X121491678Y-83187304D01*
X121456299Y-83253492D01*
X121434513Y-83325311D01*
X121427748Y-83394000D01*
X120939592Y-83394000D01*
X119755376Y-82209785D01*
X119739527Y-82190473D01*
X119662479Y-82127241D01*
X119574575Y-82080255D01*
X119479193Y-82051322D01*
X119404854Y-82044000D01*
X119404846Y-82044000D01*
X119380000Y-82041553D01*
X119355154Y-82044000D01*
X117962832Y-82044000D01*
X117930898Y-81966903D01*
X117796180Y-81765283D01*
X117624717Y-81593820D01*
X117479706Y-81496927D01*
X117690000Y-81498072D01*
X117814482Y-81485812D01*
X117934180Y-81449502D01*
X118026790Y-81400000D01*
X121171928Y-81400000D01*
X121175000Y-81614250D01*
X121333750Y-81773000D01*
X122683000Y-81773000D01*
X122683000Y-80923750D01*
X122937000Y-80923750D01*
X122937000Y-81773000D01*
X124286250Y-81773000D01*
X124445000Y-81614250D01*
X124448072Y-81400000D01*
X137427157Y-81400000D01*
X137427157Y-82400000D01*
X137434513Y-82474689D01*
X137456299Y-82546508D01*
X137491678Y-82612696D01*
X137539289Y-82670711D01*
X137597304Y-82718322D01*
X137663492Y-82753701D01*
X137735311Y-82775487D01*
X137810000Y-82782843D01*
X139810000Y-82782843D01*
X139884689Y-82775487D01*
X139956508Y-82753701D01*
X140022696Y-82718322D01*
X140080711Y-82670711D01*
X140128322Y-82612696D01*
X140163701Y-82546508D01*
X140185487Y-82474689D01*
X140192252Y-82406000D01*
X142865154Y-82406000D01*
X142890000Y-82408447D01*
X142914846Y-82406000D01*
X142914854Y-82406000D01*
X142989193Y-82398678D01*
X143084575Y-82369745D01*
X143172479Y-82322759D01*
X143249527Y-82259527D01*
X143265376Y-82240215D01*
X144989592Y-80516000D01*
X146197168Y-80516000D01*
X146229102Y-80593097D01*
X146363820Y-80794717D01*
X146535283Y-80966180D01*
X146736903Y-81100898D01*
X146960931Y-81193693D01*
X147198757Y-81241000D01*
X147441243Y-81241000D01*
X147679069Y-81193693D01*
X147903097Y-81100898D01*
X148104717Y-80966180D01*
X148276180Y-80794717D01*
X148410898Y-80593097D01*
X148503693Y-80369069D01*
X148551000Y-80131243D01*
X148551000Y-79888757D01*
X148503693Y-79650931D01*
X148410898Y-79426903D01*
X148276180Y-79225283D01*
X148104717Y-79053820D01*
X147903097Y-78919102D01*
X147679069Y-78826307D01*
X147441243Y-78779000D01*
X147198757Y-78779000D01*
X146960931Y-78826307D01*
X146736903Y-78919102D01*
X146535283Y-79053820D01*
X146363820Y-79225283D01*
X146229102Y-79426903D01*
X146197168Y-79504000D01*
X144804854Y-79504000D01*
X144780000Y-79501552D01*
X144755146Y-79504000D01*
X144680807Y-79511322D01*
X144585425Y-79540255D01*
X144497521Y-79587241D01*
X144420473Y-79650473D01*
X144404628Y-79669780D01*
X142680409Y-81394000D01*
X140192252Y-81394000D01*
X140185487Y-81325311D01*
X140163701Y-81253492D01*
X140128322Y-81187304D01*
X140080711Y-81129289D01*
X140022696Y-81081678D01*
X139956508Y-81046299D01*
X139884689Y-81024513D01*
X139810000Y-81017157D01*
X137810000Y-81017157D01*
X137735311Y-81024513D01*
X137663492Y-81046299D01*
X137597304Y-81081678D01*
X137539289Y-81129289D01*
X137491678Y-81187304D01*
X137456299Y-81253492D01*
X137434513Y-81325311D01*
X137427157Y-81400000D01*
X124448072Y-81400000D01*
X124435812Y-81275518D01*
X124399502Y-81155820D01*
X124340537Y-81045506D01*
X124261185Y-80948815D01*
X124164494Y-80869463D01*
X124054180Y-80810498D01*
X123934482Y-80774188D01*
X123810000Y-80761928D01*
X123095750Y-80765000D01*
X122937000Y-80923750D01*
X122683000Y-80923750D01*
X122524250Y-80765000D01*
X121810000Y-80761928D01*
X121685518Y-80774188D01*
X121565820Y-80810498D01*
X121455506Y-80869463D01*
X121358815Y-80948815D01*
X121279463Y-81045506D01*
X121220498Y-81155820D01*
X121184188Y-81275518D01*
X121171928Y-81400000D01*
X118026790Y-81400000D01*
X118044494Y-81390537D01*
X118141185Y-81311185D01*
X118220537Y-81214494D01*
X118279502Y-81104180D01*
X118315812Y-80984482D01*
X118328072Y-80860000D01*
X118325000Y-80295750D01*
X118166250Y-80137000D01*
X116967000Y-80137000D01*
X116967000Y-80157000D01*
X116713000Y-80157000D01*
X116713000Y-80137000D01*
X116693000Y-80137000D01*
X116693000Y-79883000D01*
X116713000Y-79883000D01*
X116713000Y-78683750D01*
X116967000Y-78683750D01*
X116967000Y-79883000D01*
X118166250Y-79883000D01*
X118325000Y-79724250D01*
X118328072Y-79160000D01*
X118315812Y-79035518D01*
X118279502Y-78915820D01*
X118220537Y-78805506D01*
X118141185Y-78708815D01*
X118044494Y-78629463D01*
X117934180Y-78570498D01*
X117814482Y-78534188D01*
X117690000Y-78521928D01*
X117125750Y-78525000D01*
X116967000Y-78683750D01*
X116713000Y-78683750D01*
X116554250Y-78525000D01*
X116409332Y-78524211D01*
X116679872Y-78440465D01*
X117007782Y-78406000D01*
X146980146Y-78406000D01*
X147309229Y-78438267D01*
%TA.AperFunction,Conductor*%
D21*
G36*
X147309229Y-78438267D02*
G01*
X147606688Y-78528075D01*
X147881028Y-78673945D01*
X148121813Y-78870325D01*
X148319873Y-79109736D01*
X148467654Y-79383053D01*
X148559535Y-79679872D01*
X148594001Y-80007792D01*
X148594000Y-94488034D01*
X148591641Y-94483080D01*
X148417588Y-94249731D01*
X148201355Y-94054822D01*
X147951252Y-93905843D01*
X147788832Y-93848228D01*
X147903097Y-93800898D01*
X148104717Y-93666180D01*
X148276180Y-93494717D01*
X148410898Y-93293097D01*
X148503693Y-93069069D01*
X148551000Y-92831243D01*
X148551000Y-92588757D01*
X148503693Y-92350931D01*
X148410898Y-92126903D01*
X148276180Y-91925283D01*
X148104717Y-91753820D01*
X147903097Y-91619102D01*
X147679069Y-91526307D01*
X147441243Y-91479000D01*
X147198757Y-91479000D01*
X146960931Y-91526307D01*
X146736903Y-91619102D01*
X146535283Y-91753820D01*
X146363820Y-91925283D01*
X146229102Y-92126903D01*
X146197168Y-92204000D01*
X142703592Y-92204000D01*
X142059376Y-91559785D01*
X142043527Y-91540473D01*
X141966479Y-91477241D01*
X141878575Y-91430255D01*
X141783193Y-91401322D01*
X141708854Y-91394000D01*
X141708846Y-91394000D01*
X141684000Y-91391553D01*
X141659154Y-91394000D01*
X140192252Y-91394000D01*
X140185487Y-91325311D01*
X140163701Y-91253492D01*
X140128322Y-91187304D01*
X140080711Y-91129289D01*
X140022696Y-91081678D01*
X139956508Y-91046299D01*
X139884689Y-91024513D01*
X139810000Y-91017157D01*
X137810000Y-91017157D01*
X137735311Y-91024513D01*
X137663492Y-91046299D01*
X137597304Y-91081678D01*
X137539289Y-91129289D01*
X137491678Y-91187304D01*
X137456299Y-91253492D01*
X137434513Y-91325311D01*
X137427157Y-91400000D01*
X137427157Y-92400000D01*
X137434513Y-92474689D01*
X137456299Y-92546508D01*
X137491678Y-92612696D01*
X137539289Y-92670711D01*
X137597304Y-92718322D01*
X137663492Y-92753701D01*
X137719874Y-92770804D01*
X137685518Y-92774188D01*
X137565820Y-92810498D01*
X137455506Y-92869463D01*
X137358815Y-92948815D01*
X137279463Y-93045506D01*
X137220498Y-93155820D01*
X137184188Y-93275518D01*
X137171928Y-93400000D01*
X137175000Y-93614250D01*
X137333750Y-93773000D01*
X138683000Y-93773000D01*
X138683000Y-93753000D01*
X138937000Y-93753000D01*
X138937000Y-93773000D01*
X140286250Y-93773000D01*
X140445000Y-93614250D01*
X140448072Y-93400000D01*
X140435812Y-93275518D01*
X140399502Y-93155820D01*
X140340537Y-93045506D01*
X140261185Y-92948815D01*
X140164494Y-92869463D01*
X140054180Y-92810498D01*
X139934482Y-92774188D01*
X139900126Y-92770804D01*
X139956508Y-92753701D01*
X140022696Y-92718322D01*
X140080711Y-92670711D01*
X140128322Y-92612696D01*
X140163701Y-92546508D01*
X140185487Y-92474689D01*
X140192252Y-92406000D01*
X141474409Y-92406000D01*
X142118628Y-93050220D01*
X142134473Y-93069527D01*
X142211521Y-93132759D01*
X142299425Y-93179745D01*
X142394807Y-93208678D01*
X142469146Y-93216000D01*
X142469154Y-93216000D01*
X142494000Y-93218447D01*
X142518846Y-93216000D01*
X146197168Y-93216000D01*
X146229102Y-93293097D01*
X146363820Y-93494717D01*
X146535283Y-93666180D01*
X146736903Y-93800898D01*
X146851168Y-93848228D01*
X146688748Y-93905843D01*
X146438645Y-94054822D01*
X146222412Y-94249731D01*
X146048359Y-94483080D01*
X145923175Y-94745901D01*
X145878524Y-94893110D01*
X145999845Y-95123000D01*
X147193000Y-95123000D01*
X147193000Y-95103000D01*
X147447000Y-95103000D01*
X147447000Y-95123000D01*
X147467000Y-95123000D01*
X147467000Y-95377000D01*
X147447000Y-95377000D01*
X147447000Y-95397000D01*
X147193000Y-95397000D01*
X147193000Y-95377000D01*
X145999845Y-95377000D01*
X145878524Y-95606890D01*
X145923175Y-95754099D01*
X146048359Y-96016920D01*
X146222412Y-96250269D01*
X146438645Y-96445178D01*
X146626633Y-96557157D01*
X146470000Y-96557157D01*
X146395311Y-96564513D01*
X146323492Y-96586299D01*
X146257304Y-96621678D01*
X146199289Y-96669289D01*
X146151678Y-96727304D01*
X146116299Y-96793492D01*
X146094513Y-96865311D01*
X146087157Y-96940000D01*
X146087157Y-98268945D01*
X143218574Y-98268945D01*
X140494831Y-95545202D01*
X140478305Y-95525065D01*
X140397954Y-95459123D01*
X140306283Y-95410124D01*
X140206814Y-95379950D01*
X140190712Y-95378364D01*
X140185487Y-95325311D01*
X140163701Y-95253492D01*
X140128322Y-95187304D01*
X140080711Y-95129289D01*
X140022696Y-95081678D01*
X139956508Y-95046299D01*
X139900126Y-95029196D01*
X139934482Y-95025812D01*
X140054180Y-94989502D01*
X140164494Y-94930537D01*
X140261185Y-94851185D01*
X140340537Y-94754494D01*
X140399502Y-94644180D01*
X140435812Y-94524482D01*
X140448072Y-94400000D01*
X140445000Y-94185750D01*
X140286250Y-94027000D01*
X138937000Y-94027000D01*
X138937000Y-94047000D01*
X138683000Y-94047000D01*
X138683000Y-94027000D01*
X137333750Y-94027000D01*
X137175000Y-94185750D01*
X137171928Y-94400000D01*
X137184188Y-94524482D01*
X137220498Y-94644180D01*
X137279463Y-94754494D01*
X137358815Y-94851185D01*
X137455506Y-94930537D01*
X137565820Y-94989502D01*
X137685518Y-95025812D01*
X137719874Y-95029196D01*
X137663492Y-95046299D01*
X137597304Y-95081678D01*
X137539289Y-95129289D01*
X137491678Y-95187304D01*
X137456299Y-95253492D01*
X137434513Y-95325311D01*
X137429884Y-95372315D01*
X134630911Y-95372315D01*
X134604999Y-95369763D01*
X134579087Y-95372315D01*
X134579078Y-95372315D01*
X134501556Y-95379950D01*
X134402087Y-95410124D01*
X134322251Y-95452797D01*
X134310414Y-95459124D01*
X134250199Y-95508541D01*
X134250196Y-95508544D01*
X134230065Y-95525065D01*
X134213544Y-95545196D01*
X131645201Y-98113540D01*
X131625065Y-98130065D01*
X131559123Y-98210416D01*
X131510124Y-98302088D01*
X131479950Y-98401557D01*
X131475984Y-98441829D01*
X131469762Y-98505000D01*
X131472315Y-98530920D01*
X131472316Y-100188491D01*
X131286641Y-100265400D01*
X131039981Y-100430213D01*
X130830213Y-100639981D01*
X130665400Y-100886641D01*
X130551875Y-101160716D01*
X130494000Y-101451672D01*
X130494000Y-101748328D01*
X130551875Y-102039284D01*
X130665400Y-102313359D01*
X130830213Y-102560019D01*
X131039981Y-102769787D01*
X131286641Y-102934600D01*
X131560716Y-103048125D01*
X131851672Y-103106000D01*
X132148328Y-103106000D01*
X132439284Y-103048125D01*
X132713359Y-102934600D01*
X132741990Y-102915469D01*
X133495074Y-102915469D01*
X134540000Y-103960395D01*
X135584926Y-102915469D01*
X135474079Y-102638286D01*
X135163160Y-102484911D01*
X134828295Y-102395140D01*
X134482350Y-102372424D01*
X134138620Y-102417634D01*
X133810315Y-102529034D01*
X133605921Y-102638286D01*
X133495074Y-102915469D01*
X132741990Y-102915469D01*
X132960019Y-102769787D01*
X133169787Y-102560019D01*
X133334600Y-102313359D01*
X133448125Y-102039284D01*
X133475830Y-101900000D01*
X140361928Y-101900000D01*
X140365000Y-102714250D01*
X140523750Y-102873000D01*
X141398000Y-102873000D01*
X141398000Y-101423750D01*
X141239250Y-101265000D01*
X141000000Y-101261928D01*
X140875518Y-101274188D01*
X140755820Y-101310498D01*
X140645506Y-101369463D01*
X140548815Y-101448815D01*
X140469463Y-101545506D01*
X140410498Y-101655820D01*
X140374188Y-101775518D01*
X140361928Y-101900000D01*
X133475830Y-101900000D01*
X133506000Y-101748328D01*
X133506000Y-101451672D01*
X133448125Y-101160716D01*
X133334600Y-100886641D01*
X133169787Y-100639981D01*
X132960019Y-100430213D01*
X132741991Y-100284531D01*
X133495074Y-100284531D01*
X133605921Y-100561714D01*
X133916840Y-100715089D01*
X134251705Y-100804860D01*
X134597650Y-100827576D01*
X134941380Y-100782366D01*
X135269685Y-100670966D01*
X135474079Y-100561714D01*
X135584926Y-100284531D01*
X134540000Y-99239605D01*
X133495074Y-100284531D01*
X132741991Y-100284531D01*
X132713359Y-100265400D01*
X132527685Y-100188492D01*
X132527685Y-98723574D01*
X132953537Y-98297722D01*
X132884911Y-98436840D01*
X132795140Y-98771705D01*
X132772424Y-99117650D01*
X132817634Y-99461380D01*
X132929034Y-99789685D01*
X133038286Y-99994079D01*
X133315469Y-100104926D01*
X134360395Y-99060000D01*
X134719605Y-99060000D01*
X135764531Y-100104926D01*
X136041714Y-99994079D01*
X136195089Y-99683160D01*
X136284860Y-99348295D01*
X136307576Y-99002350D01*
X136262366Y-98658620D01*
X136150966Y-98330315D01*
X136041714Y-98125921D01*
X135764531Y-98015074D01*
X134719605Y-99060000D01*
X134360395Y-99060000D01*
X134346253Y-99045858D01*
X134525858Y-98866253D01*
X134540000Y-98880395D01*
X135584926Y-97835469D01*
X135474079Y-97558286D01*
X135163160Y-97404911D01*
X134828295Y-97315140D01*
X134482350Y-97292424D01*
X134138620Y-97337634D01*
X133810315Y-97449034D01*
X133792936Y-97458323D01*
X134823575Y-96427685D01*
X137429884Y-96427685D01*
X137434513Y-96474689D01*
X137456299Y-96546508D01*
X137491678Y-96612696D01*
X137539289Y-96670711D01*
X137597304Y-96718322D01*
X137663492Y-96753701D01*
X137735311Y-96775487D01*
X137810000Y-96782843D01*
X139810000Y-96782843D01*
X139884689Y-96775487D01*
X139956508Y-96753701D01*
X140022696Y-96718322D01*
X140080711Y-96670711D01*
X140101946Y-96644835D01*
X142472315Y-99015204D01*
X142472316Y-100619884D01*
X142425311Y-100624513D01*
X142353492Y-100646299D01*
X142287304Y-100681678D01*
X142229289Y-100729289D01*
X142181678Y-100787304D01*
X142146299Y-100853492D01*
X142124513Y-100925311D01*
X142117157Y-101000000D01*
X142117157Y-101268542D01*
X142050000Y-101261928D01*
X141810750Y-101265000D01*
X141652000Y-101423750D01*
X141652000Y-102873000D01*
X142526250Y-102873000D01*
X142685000Y-102714250D01*
X142686250Y-102382843D01*
X143313750Y-102382843D01*
X143315000Y-102714250D01*
X143473750Y-102873000D01*
X144348000Y-102873000D01*
X144348000Y-101423750D01*
X144602000Y-101423750D01*
X144602000Y-102873000D01*
X145476250Y-102873000D01*
X145635000Y-102714250D01*
X145638072Y-101900000D01*
X145625812Y-101775518D01*
X145589502Y-101655820D01*
X145530537Y-101545506D01*
X145451185Y-101448815D01*
X145354494Y-101369463D01*
X145244180Y-101310498D01*
X145124482Y-101274188D01*
X145000000Y-101261928D01*
X144760750Y-101265000D01*
X144602000Y-101423750D01*
X144348000Y-101423750D01*
X144189250Y-101265000D01*
X143950000Y-101261928D01*
X143882843Y-101268542D01*
X143882843Y-101000000D01*
X143875487Y-100925311D01*
X143853701Y-100853492D01*
X143818322Y-100787304D01*
X143770711Y-100729289D01*
X143712696Y-100681678D01*
X143646508Y-100646299D01*
X143574689Y-100624513D01*
X143527685Y-100619884D01*
X143527685Y-99324315D01*
X146287451Y-99324315D01*
X146313370Y-99326868D01*
X146339289Y-99324315D01*
X146339292Y-99324315D01*
X146416814Y-99316680D01*
X146516283Y-99286506D01*
X146607954Y-99237507D01*
X146688305Y-99171565D01*
X146704831Y-99151428D01*
X146833416Y-99022843D01*
X148170000Y-99022843D01*
X148244689Y-99015487D01*
X148316508Y-98993701D01*
X148382696Y-98958322D01*
X148440711Y-98910711D01*
X148488322Y-98852696D01*
X148523701Y-98786508D01*
X148545487Y-98714689D01*
X148552843Y-98640000D01*
X148552843Y-96940000D01*
X148545487Y-96865311D01*
X148523701Y-96793492D01*
X148488322Y-96727304D01*
X148440711Y-96669289D01*
X148382696Y-96621678D01*
X148316508Y-96586299D01*
X148244689Y-96564513D01*
X148170000Y-96557157D01*
X148013367Y-96557157D01*
X148201355Y-96445178D01*
X148417588Y-96250269D01*
X148591641Y-96016920D01*
X148594000Y-96011967D01*
X148594000Y-103980146D01*
X148561733Y-104309230D01*
X148471926Y-104606684D01*
X148326056Y-104881025D01*
X148129675Y-105121813D01*
X147890265Y-105319871D01*
X147616948Y-105467654D01*
X147320128Y-105559535D01*
X146992218Y-105594000D01*
X143729352Y-105594000D01*
X143744180Y-105589502D01*
X143854494Y-105530537D01*
X143951185Y-105451185D01*
X144030537Y-105354494D01*
X144089502Y-105244180D01*
X144125812Y-105124482D01*
X144138072Y-105000000D01*
X144135000Y-104785750D01*
X144085581Y-104736331D01*
X144189250Y-104735000D01*
X144348000Y-104576250D01*
X144348000Y-103127000D01*
X144602000Y-103127000D01*
X144602000Y-104576250D01*
X144760750Y-104735000D01*
X145000000Y-104738072D01*
X145124482Y-104725812D01*
X145244180Y-104689502D01*
X145354494Y-104630537D01*
X145451185Y-104551185D01*
X145530537Y-104454494D01*
X145589502Y-104344180D01*
X145625812Y-104224482D01*
X145638072Y-104100000D01*
X145635000Y-103285750D01*
X145476250Y-103127000D01*
X144602000Y-103127000D01*
X144348000Y-103127000D01*
X143473750Y-103127000D01*
X143315000Y-103285750D01*
X143314703Y-103364585D01*
X143285750Y-103365000D01*
X143127000Y-103523750D01*
X143127000Y-104373000D01*
X143147000Y-104373000D01*
X143147000Y-104627000D01*
X143127000Y-104627000D01*
X143127000Y-104647000D01*
X142873000Y-104647000D01*
X142873000Y-104627000D01*
X142853000Y-104627000D01*
X142853000Y-104373000D01*
X142873000Y-104373000D01*
X142873000Y-103523750D01*
X142714250Y-103365000D01*
X142685297Y-103364585D01*
X142685000Y-103285750D01*
X142526250Y-103127000D01*
X141652000Y-103127000D01*
X141652000Y-104576250D01*
X141810750Y-104735000D01*
X141914419Y-104736331D01*
X141865000Y-104785750D01*
X141861928Y-105000000D01*
X141874188Y-105124482D01*
X141910498Y-105244180D01*
X141969463Y-105354494D01*
X142048815Y-105451185D01*
X142145506Y-105530537D01*
X142255820Y-105589502D01*
X142270648Y-105594000D01*
X135493160Y-105594000D01*
X135584926Y-105364531D01*
X134540000Y-104319605D01*
X133495074Y-105364531D01*
X133586840Y-105594000D01*
X130413160Y-105594000D01*
X130504926Y-105364531D01*
X129460000Y-104319605D01*
X128415074Y-105364531D01*
X128506840Y-105594000D01*
X117019854Y-105594000D01*
X116690770Y-105561733D01*
X116393316Y-105471926D01*
X116118975Y-105326056D01*
X115878187Y-105129675D01*
X115680129Y-104890265D01*
X115532346Y-104616948D01*
X115440465Y-104320128D01*
X115427592Y-104197650D01*
X127692424Y-104197650D01*
X127737634Y-104541380D01*
X127849034Y-104869685D01*
X127958286Y-105074079D01*
X128235469Y-105184926D01*
X129280395Y-104140000D01*
X129639605Y-104140000D01*
X130684531Y-105184926D01*
X130961714Y-105074079D01*
X131115089Y-104763160D01*
X131204860Y-104428295D01*
X131220004Y-104197650D01*
X132772424Y-104197650D01*
X132817634Y-104541380D01*
X132929034Y-104869685D01*
X133038286Y-105074079D01*
X133315469Y-105184926D01*
X134360395Y-104140000D01*
X134719605Y-104140000D01*
X135764531Y-105184926D01*
X136041714Y-105074079D01*
X136195089Y-104763160D01*
X136284860Y-104428295D01*
X136306417Y-104100000D01*
X140361928Y-104100000D01*
X140374188Y-104224482D01*
X140410498Y-104344180D01*
X140469463Y-104454494D01*
X140548815Y-104551185D01*
X140645506Y-104630537D01*
X140755820Y-104689502D01*
X140875518Y-104725812D01*
X141000000Y-104738072D01*
X141239250Y-104735000D01*
X141398000Y-104576250D01*
X141398000Y-103127000D01*
X140523750Y-103127000D01*
X140365000Y-103285750D01*
X140361928Y-104100000D01*
X136306417Y-104100000D01*
X136307576Y-104082350D01*
X136262366Y-103738620D01*
X136150966Y-103410315D01*
X136041714Y-103205921D01*
X135764531Y-103095074D01*
X134719605Y-104140000D01*
X134360395Y-104140000D01*
X133315469Y-103095074D01*
X133038286Y-103205921D01*
X132884911Y-103516840D01*
X132795140Y-103851705D01*
X132772424Y-104197650D01*
X131220004Y-104197650D01*
X131227576Y-104082350D01*
X131182366Y-103738620D01*
X131070966Y-103410315D01*
X130961714Y-103205921D01*
X130684531Y-103095074D01*
X129639605Y-104140000D01*
X129280395Y-104140000D01*
X128235469Y-103095074D01*
X127958286Y-103205921D01*
X127804911Y-103516840D01*
X127715140Y-103851705D01*
X127692424Y-104197650D01*
X115427592Y-104197650D01*
X115406000Y-103992218D01*
X115406000Y-102915469D01*
X128415074Y-102915469D01*
X129460000Y-103960395D01*
X130504926Y-102915469D01*
X130394079Y-102638286D01*
X130083160Y-102484911D01*
X129748295Y-102395140D01*
X129402350Y-102372424D01*
X129058620Y-102417634D01*
X128730315Y-102529034D01*
X128525921Y-102638286D01*
X128415074Y-102915469D01*
X115406000Y-102915469D01*
X115406000Y-100284531D01*
X128415074Y-100284531D01*
X128525921Y-100561714D01*
X128836840Y-100715089D01*
X129171705Y-100804860D01*
X129517650Y-100827576D01*
X129861380Y-100782366D01*
X130189685Y-100670966D01*
X130394079Y-100561714D01*
X130504926Y-100284531D01*
X129460000Y-99239605D01*
X128415074Y-100284531D01*
X115406000Y-100284531D01*
X115406000Y-98171537D01*
X115443175Y-98294099D01*
X115568359Y-98556920D01*
X115742412Y-98790269D01*
X115958645Y-98985178D01*
X116208748Y-99134157D01*
X116483109Y-99231481D01*
X116713000Y-99110814D01*
X116713000Y-97917000D01*
X116967000Y-97917000D01*
X116967000Y-99110814D01*
X117196891Y-99231481D01*
X117471252Y-99134157D01*
X117498963Y-99117650D01*
X127692424Y-99117650D01*
X127737634Y-99461380D01*
X127849034Y-99789685D01*
X127958286Y-99994079D01*
X128235469Y-100104926D01*
X129280395Y-99060000D01*
X129639605Y-99060000D01*
X130684531Y-100104926D01*
X130961714Y-99994079D01*
X131115089Y-99683160D01*
X131204860Y-99348295D01*
X131227576Y-99002350D01*
X131182366Y-98658620D01*
X131070966Y-98330315D01*
X130961714Y-98125921D01*
X130684531Y-98015074D01*
X129639605Y-99060000D01*
X129280395Y-99060000D01*
X128235469Y-98015074D01*
X127958286Y-98125921D01*
X127804911Y-98436840D01*
X127715140Y-98771705D01*
X127692424Y-99117650D01*
X117498963Y-99117650D01*
X117721355Y-98985178D01*
X117937588Y-98790269D01*
X118111641Y-98556920D01*
X118236825Y-98294099D01*
X118281476Y-98146890D01*
X118160155Y-97917000D01*
X116967000Y-97917000D01*
X116713000Y-97917000D01*
X116693000Y-97917000D01*
X116693000Y-97835469D01*
X128415074Y-97835469D01*
X129460000Y-98880395D01*
X130504926Y-97835469D01*
X130394079Y-97558286D01*
X130083160Y-97404911D01*
X129748295Y-97315140D01*
X129402350Y-97292424D01*
X129058620Y-97337634D01*
X128730315Y-97449034D01*
X128525921Y-97558286D01*
X128415074Y-97835469D01*
X116693000Y-97835469D01*
X116693000Y-97663000D01*
X116713000Y-97663000D01*
X116713000Y-97643000D01*
X116967000Y-97643000D01*
X116967000Y-97663000D01*
X118160155Y-97663000D01*
X118281476Y-97433110D01*
X118236825Y-97285901D01*
X118111641Y-97023080D01*
X117937588Y-96789731D01*
X117721355Y-96594822D01*
X117471252Y-96445843D01*
X117342018Y-96400000D01*
X121171928Y-96400000D01*
X121184188Y-96524482D01*
X121220498Y-96644180D01*
X121279463Y-96754494D01*
X121358815Y-96851185D01*
X121455506Y-96930537D01*
X121565820Y-96989502D01*
X121685518Y-97025812D01*
X121810000Y-97038072D01*
X122524250Y-97035000D01*
X122683000Y-96876250D01*
X122683000Y-96027000D01*
X122937000Y-96027000D01*
X122937000Y-96876250D01*
X123095750Y-97035000D01*
X123810000Y-97038072D01*
X123934482Y-97025812D01*
X124054180Y-96989502D01*
X124164494Y-96930537D01*
X124261185Y-96851185D01*
X124340537Y-96754494D01*
X124399502Y-96644180D01*
X124435812Y-96524482D01*
X124448072Y-96400000D01*
X124445000Y-96185750D01*
X124286250Y-96027000D01*
X122937000Y-96027000D01*
X122683000Y-96027000D01*
X121333750Y-96027000D01*
X121175000Y-96185750D01*
X121171928Y-96400000D01*
X117342018Y-96400000D01*
X117308832Y-96388228D01*
X117423097Y-96340898D01*
X117624717Y-96206180D01*
X117796180Y-96034717D01*
X117930898Y-95833097D01*
X117962832Y-95756000D01*
X118720154Y-95756000D01*
X118745000Y-95758447D01*
X118769846Y-95756000D01*
X118769854Y-95756000D01*
X118844193Y-95748678D01*
X118939575Y-95719745D01*
X119027479Y-95672759D01*
X119104527Y-95609527D01*
X119120376Y-95590215D01*
X120304592Y-94406000D01*
X121427748Y-94406000D01*
X121434513Y-94474689D01*
X121456299Y-94546508D01*
X121491678Y-94612696D01*
X121539289Y-94670711D01*
X121597304Y-94718322D01*
X121663492Y-94753701D01*
X121719874Y-94770804D01*
X121685518Y-94774188D01*
X121565820Y-94810498D01*
X121455506Y-94869463D01*
X121358815Y-94948815D01*
X121279463Y-95045506D01*
X121220498Y-95155820D01*
X121184188Y-95275518D01*
X121171928Y-95400000D01*
X121175000Y-95614250D01*
X121333750Y-95773000D01*
X122683000Y-95773000D01*
X122683000Y-95753000D01*
X122937000Y-95753000D01*
X122937000Y-95773000D01*
X124286250Y-95773000D01*
X124445000Y-95614250D01*
X124448072Y-95400000D01*
X124435812Y-95275518D01*
X124399502Y-95155820D01*
X124340537Y-95045506D01*
X124261185Y-94948815D01*
X124164494Y-94869463D01*
X124054180Y-94810498D01*
X123934482Y-94774188D01*
X123900126Y-94770804D01*
X123956508Y-94753701D01*
X124022696Y-94718322D01*
X124080711Y-94670711D01*
X124128322Y-94612696D01*
X124163701Y-94546508D01*
X124185487Y-94474689D01*
X124192843Y-94400000D01*
X124192843Y-93400000D01*
X124185487Y-93325311D01*
X124163701Y-93253492D01*
X124128322Y-93187304D01*
X124080711Y-93129289D01*
X124022696Y-93081678D01*
X123956508Y-93046299D01*
X123884689Y-93024513D01*
X123810000Y-93017157D01*
X121810000Y-93017157D01*
X121735311Y-93024513D01*
X121663492Y-93046299D01*
X121597304Y-93081678D01*
X121539289Y-93129289D01*
X121491678Y-93187304D01*
X121456299Y-93253492D01*
X121434513Y-93325311D01*
X121427748Y-93394000D01*
X120119845Y-93394000D01*
X120094999Y-93391553D01*
X120070153Y-93394000D01*
X120070146Y-93394000D01*
X120009229Y-93400000D01*
X119995806Y-93401322D01*
X119973607Y-93408056D01*
X119900425Y-93430255D01*
X119812521Y-93477241D01*
X119735473Y-93540473D01*
X119719628Y-93559780D01*
X118535409Y-94744000D01*
X117962832Y-94744000D01*
X117930898Y-94666903D01*
X117796180Y-94465283D01*
X117624717Y-94293820D01*
X117423097Y-94159102D01*
X117199069Y-94066307D01*
X116961243Y-94019000D01*
X116718757Y-94019000D01*
X116480931Y-94066307D01*
X116256903Y-94159102D01*
X116055283Y-94293820D01*
X115883820Y-94465283D01*
X115749102Y-94666903D01*
X115656307Y-94890931D01*
X115609000Y-95128757D01*
X115609000Y-95371243D01*
X115656307Y-95609069D01*
X115749102Y-95833097D01*
X115883820Y-96034717D01*
X116055283Y-96206180D01*
X116256903Y-96340898D01*
X116371168Y-96388228D01*
X116208748Y-96445843D01*
X115958645Y-96594822D01*
X115742412Y-96789731D01*
X115568359Y-97023080D01*
X115443175Y-97285901D01*
X115406000Y-97408463D01*
X115406000Y-92588757D01*
X115609000Y-92588757D01*
X115609000Y-92831243D01*
X115656307Y-93069069D01*
X115749102Y-93293097D01*
X115883820Y-93494717D01*
X116055283Y-93666180D01*
X116256903Y-93800898D01*
X116480931Y-93893693D01*
X116718757Y-93941000D01*
X116961243Y-93941000D01*
X117199069Y-93893693D01*
X117423097Y-93800898D01*
X117624717Y-93666180D01*
X117796180Y-93494717D01*
X117930898Y-93293097D01*
X117962832Y-93216000D01*
X119355154Y-93216000D01*
X119380000Y-93218447D01*
X119404846Y-93216000D01*
X119404854Y-93216000D01*
X119479193Y-93208678D01*
X119574575Y-93179745D01*
X119662479Y-93132759D01*
X119739527Y-93069527D01*
X119755376Y-93050215D01*
X120399592Y-92406000D01*
X121427748Y-92406000D01*
X121434513Y-92474689D01*
X121456299Y-92546508D01*
X121491678Y-92612696D01*
X121539289Y-92670711D01*
X121597304Y-92718322D01*
X121663492Y-92753701D01*
X121735311Y-92775487D01*
X121810000Y-92782843D01*
X123810000Y-92782843D01*
X123884689Y-92775487D01*
X123956508Y-92753701D01*
X124022696Y-92718322D01*
X124080711Y-92670711D01*
X124128322Y-92612696D01*
X124163701Y-92546508D01*
X124185487Y-92474689D01*
X124192843Y-92400000D01*
X124192843Y-91400000D01*
X124185487Y-91325311D01*
X124163701Y-91253492D01*
X124128322Y-91187304D01*
X124080711Y-91129289D01*
X124022696Y-91081678D01*
X123956508Y-91046299D01*
X123884689Y-91024513D01*
X123810000Y-91017157D01*
X121810000Y-91017157D01*
X121735311Y-91024513D01*
X121663492Y-91046299D01*
X121597304Y-91081678D01*
X121539289Y-91129289D01*
X121491678Y-91187304D01*
X121456299Y-91253492D01*
X121434513Y-91325311D01*
X121427748Y-91394000D01*
X120214846Y-91394000D01*
X120190000Y-91391553D01*
X120165154Y-91394000D01*
X120165146Y-91394000D01*
X120090807Y-91401322D01*
X119995425Y-91430255D01*
X119907521Y-91477241D01*
X119830473Y-91540473D01*
X119814628Y-91559780D01*
X119170409Y-92204000D01*
X117962832Y-92204000D01*
X117930898Y-92126903D01*
X117796180Y-91925283D01*
X117624717Y-91753820D01*
X117423097Y-91619102D01*
X117199069Y-91526307D01*
X116961243Y-91479000D01*
X116718757Y-91479000D01*
X116480931Y-91526307D01*
X116256903Y-91619102D01*
X116055283Y-91753820D01*
X115883820Y-91925283D01*
X115749102Y-92126903D01*
X115656307Y-92350931D01*
X115609000Y-92588757D01*
X115406000Y-92588757D01*
X115406000Y-90048757D01*
X115609000Y-90048757D01*
X115609000Y-90291243D01*
X115656307Y-90529069D01*
X115749102Y-90753097D01*
X115883820Y-90954717D01*
X116055283Y-91126180D01*
X116256903Y-91260898D01*
X116480931Y-91353693D01*
X116718757Y-91401000D01*
X116961243Y-91401000D01*
X117199069Y-91353693D01*
X117423097Y-91260898D01*
X117624717Y-91126180D01*
X117796180Y-90954717D01*
X117930898Y-90753097D01*
X118023693Y-90529069D01*
X118048173Y-90406000D01*
X121427748Y-90406000D01*
X121434513Y-90474689D01*
X121456299Y-90546508D01*
X121491678Y-90612696D01*
X121539289Y-90670711D01*
X121597304Y-90718322D01*
X121663492Y-90753701D01*
X121735311Y-90775487D01*
X121810000Y-90782843D01*
X123810000Y-90782843D01*
X123884689Y-90775487D01*
X123956508Y-90753701D01*
X124022696Y-90718322D01*
X124080711Y-90670711D01*
X124128322Y-90612696D01*
X124163701Y-90546508D01*
X124185487Y-90474689D01*
X124192843Y-90400000D01*
X124192843Y-89400000D01*
X137427157Y-89400000D01*
X137427157Y-90400000D01*
X137434513Y-90474689D01*
X137456299Y-90546508D01*
X137491678Y-90612696D01*
X137539289Y-90670711D01*
X137597304Y-90718322D01*
X137663492Y-90753701D01*
X137735311Y-90775487D01*
X137810000Y-90782843D01*
X139810000Y-90782843D01*
X139884689Y-90775487D01*
X139956508Y-90753701D01*
X140022696Y-90718322D01*
X140080711Y-90670711D01*
X140128322Y-90612696D01*
X140163701Y-90546508D01*
X140185487Y-90474689D01*
X140192252Y-90406000D01*
X141125409Y-90406000D01*
X142499628Y-91780220D01*
X142515473Y-91799527D01*
X142592521Y-91862759D01*
X142662194Y-91900000D01*
X142680425Y-91909745D01*
X142775807Y-91938678D01*
X142875000Y-91948448D01*
X142899854Y-91946000D01*
X144755154Y-91946000D01*
X144780000Y-91948447D01*
X144804846Y-91946000D01*
X144804854Y-91946000D01*
X144879193Y-91938678D01*
X144974575Y-91909745D01*
X145062479Y-91862759D01*
X145139527Y-91799527D01*
X145155376Y-91780215D01*
X146215451Y-90720141D01*
X146229102Y-90753097D01*
X146363820Y-90954717D01*
X146535283Y-91126180D01*
X146736903Y-91260898D01*
X146960931Y-91353693D01*
X147198757Y-91401000D01*
X147441243Y-91401000D01*
X147679069Y-91353693D01*
X147903097Y-91260898D01*
X148104717Y-91126180D01*
X148276180Y-90954717D01*
X148410898Y-90753097D01*
X148503693Y-90529069D01*
X148551000Y-90291243D01*
X148551000Y-90048757D01*
X148503693Y-89810931D01*
X148410898Y-89586903D01*
X148276180Y-89385283D01*
X148104717Y-89213820D01*
X147903097Y-89079102D01*
X147679069Y-88986307D01*
X147441243Y-88939000D01*
X147198757Y-88939000D01*
X146960931Y-88986307D01*
X146736903Y-89079102D01*
X146535283Y-89213820D01*
X146363820Y-89385283D01*
X146229102Y-89586903D01*
X146197168Y-89664000D01*
X146074845Y-89664000D01*
X146049999Y-89661553D01*
X146025153Y-89664000D01*
X146025146Y-89664000D01*
X145960694Y-89670348D01*
X145950806Y-89671322D01*
X145855425Y-89700255D01*
X145767521Y-89747241D01*
X145690473Y-89810473D01*
X145674629Y-89829779D01*
X144570409Y-90934000D01*
X143084592Y-90934000D01*
X142667047Y-90516455D01*
X142785000Y-90528072D01*
X143224250Y-90525000D01*
X143383000Y-90366250D01*
X143383000Y-89429500D01*
X143637000Y-89429500D01*
X143637000Y-90366250D01*
X143795750Y-90525000D01*
X144235000Y-90528072D01*
X144359482Y-90515812D01*
X144479180Y-90479502D01*
X144589494Y-90420537D01*
X144686185Y-90341185D01*
X144765537Y-90244494D01*
X144824502Y-90134180D01*
X144860812Y-90014482D01*
X144873072Y-89890000D01*
X144870000Y-89588250D01*
X144711250Y-89429500D01*
X143637000Y-89429500D01*
X143383000Y-89429500D01*
X142308750Y-89429500D01*
X142150000Y-89588250D01*
X142146928Y-89890000D01*
X142158545Y-90007954D01*
X141710376Y-89559785D01*
X141694527Y-89540473D01*
X141617479Y-89477241D01*
X141529575Y-89430255D01*
X141434193Y-89401322D01*
X141359854Y-89394000D01*
X141359846Y-89394000D01*
X141335000Y-89391553D01*
X141310154Y-89394000D01*
X140192252Y-89394000D01*
X140185487Y-89325311D01*
X140163701Y-89253492D01*
X140128322Y-89187304D01*
X140080711Y-89129289D01*
X140022696Y-89081678D01*
X139956508Y-89046299D01*
X139884689Y-89024513D01*
X139810000Y-89017157D01*
X137810000Y-89017157D01*
X137735311Y-89024513D01*
X137663492Y-89046299D01*
X137597304Y-89081678D01*
X137539289Y-89129289D01*
X137491678Y-89187304D01*
X137456299Y-89253492D01*
X137434513Y-89325311D01*
X137427157Y-89400000D01*
X124192843Y-89400000D01*
X124185487Y-89325311D01*
X124163701Y-89253492D01*
X124128322Y-89187304D01*
X124080711Y-89129289D01*
X124022696Y-89081678D01*
X123956508Y-89046299D01*
X123884689Y-89024513D01*
X123810000Y-89017157D01*
X121810000Y-89017157D01*
X121735311Y-89024513D01*
X121663492Y-89046299D01*
X121597304Y-89081678D01*
X121539289Y-89129289D01*
X121491678Y-89187304D01*
X121456299Y-89253492D01*
X121434513Y-89325311D01*
X121427748Y-89394000D01*
X117802005Y-89394000D01*
X117796180Y-89385283D01*
X117624717Y-89213820D01*
X117423097Y-89079102D01*
X117199069Y-88986307D01*
X116961243Y-88939000D01*
X116718757Y-88939000D01*
X116480931Y-88986307D01*
X116256903Y-89079102D01*
X116055283Y-89213820D01*
X115883820Y-89385283D01*
X115749102Y-89586903D01*
X115656307Y-89810931D01*
X115609000Y-90048757D01*
X115406000Y-90048757D01*
X115406000Y-87508757D01*
X115609000Y-87508757D01*
X115609000Y-87751243D01*
X115656307Y-87989069D01*
X115749102Y-88213097D01*
X115883820Y-88414717D01*
X116055283Y-88586180D01*
X116256903Y-88720898D01*
X116480931Y-88813693D01*
X116718757Y-88861000D01*
X116961243Y-88861000D01*
X117199069Y-88813693D01*
X117423097Y-88720898D01*
X117624717Y-88586180D01*
X117796180Y-88414717D01*
X117802005Y-88406000D01*
X121427748Y-88406000D01*
X121434513Y-88474689D01*
X121456299Y-88546508D01*
X121491678Y-88612696D01*
X121539289Y-88670711D01*
X121597304Y-88718322D01*
X121663492Y-88753701D01*
X121735311Y-88775487D01*
X121810000Y-88782843D01*
X123810000Y-88782843D01*
X123884689Y-88775487D01*
X123956508Y-88753701D01*
X124022696Y-88718322D01*
X124080711Y-88670711D01*
X124128322Y-88612696D01*
X124163701Y-88546508D01*
X124185487Y-88474689D01*
X124192843Y-88400000D01*
X124192843Y-87400000D01*
X137427157Y-87400000D01*
X137427157Y-88400000D01*
X137434513Y-88474689D01*
X137456299Y-88546508D01*
X137491678Y-88612696D01*
X137539289Y-88670711D01*
X137597304Y-88718322D01*
X137663492Y-88753701D01*
X137735311Y-88775487D01*
X137810000Y-88782843D01*
X139810000Y-88782843D01*
X139884689Y-88775487D01*
X139956508Y-88753701D01*
X140022696Y-88718322D01*
X140080711Y-88670711D01*
X140128322Y-88612696D01*
X140163701Y-88546508D01*
X140185487Y-88474689D01*
X140189553Y-88433400D01*
X142215500Y-88433400D01*
X142195498Y-88470820D01*
X142159188Y-88590518D01*
X142146928Y-88715000D01*
X142150000Y-89016750D01*
X142308750Y-89175500D01*
X143383000Y-89175500D01*
X143383000Y-89155500D01*
X143637000Y-89155500D01*
X143637000Y-89175500D01*
X144711250Y-89175500D01*
X144870000Y-89016750D01*
X144873072Y-88715000D01*
X144860812Y-88590518D01*
X144824502Y-88470820D01*
X144765537Y-88360506D01*
X144686185Y-88263815D01*
X144589494Y-88184463D01*
X144550089Y-88163400D01*
X146208517Y-88163400D01*
X146229102Y-88213097D01*
X146363820Y-88414717D01*
X146535283Y-88586180D01*
X146736903Y-88720898D01*
X146960931Y-88813693D01*
X147198757Y-88861000D01*
X147441243Y-88861000D01*
X147679069Y-88813693D01*
X147903097Y-88720898D01*
X148104717Y-88586180D01*
X148276180Y-88414717D01*
X148410898Y-88213097D01*
X148503693Y-87989069D01*
X148551000Y-87751243D01*
X148551000Y-87508757D01*
X148503693Y-87270931D01*
X148410898Y-87046903D01*
X148276180Y-86845283D01*
X148104717Y-86673820D01*
X147903097Y-86539102D01*
X147679069Y-86446307D01*
X147441243Y-86399000D01*
X147198757Y-86399000D01*
X146960931Y-86446307D01*
X146736903Y-86539102D01*
X146535283Y-86673820D01*
X146363820Y-86845283D01*
X146229102Y-87046903D01*
X146208517Y-87096600D01*
X144617843Y-87096600D01*
X144617843Y-86890000D01*
X144605683Y-86766538D01*
X144569671Y-86647821D01*
X144511190Y-86538411D01*
X144432488Y-86442512D01*
X144336589Y-86363810D01*
X144227179Y-86305329D01*
X144108462Y-86269317D01*
X143985000Y-86257157D01*
X143035000Y-86257157D01*
X142911538Y-86269317D01*
X142792821Y-86305329D01*
X142683411Y-86363810D01*
X142587512Y-86442512D01*
X142508810Y-86538411D01*
X142450329Y-86647821D01*
X142414317Y-86766538D01*
X142402157Y-86890000D01*
X142402157Y-87366600D01*
X140189553Y-87366600D01*
X140185487Y-87325311D01*
X140163701Y-87253492D01*
X140128322Y-87187304D01*
X140080711Y-87129289D01*
X140022696Y-87081678D01*
X139956508Y-87046299D01*
X139884689Y-87024513D01*
X139810000Y-87017157D01*
X137810000Y-87017157D01*
X137735311Y-87024513D01*
X137663492Y-87046299D01*
X137597304Y-87081678D01*
X137539289Y-87129289D01*
X137491678Y-87187304D01*
X137456299Y-87253492D01*
X137434513Y-87325311D01*
X137427157Y-87400000D01*
X124192843Y-87400000D01*
X124185487Y-87325311D01*
X124163701Y-87253492D01*
X124128322Y-87187304D01*
X124080711Y-87129289D01*
X124022696Y-87081678D01*
X123956508Y-87046299D01*
X123884689Y-87024513D01*
X123810000Y-87017157D01*
X121810000Y-87017157D01*
X121735311Y-87024513D01*
X121663492Y-87046299D01*
X121597304Y-87081678D01*
X121539289Y-87129289D01*
X121491678Y-87187304D01*
X121456299Y-87253492D01*
X121434513Y-87325311D01*
X121427748Y-87394000D01*
X118048173Y-87394000D01*
X118023693Y-87270931D01*
X117930898Y-87046903D01*
X117796180Y-86845283D01*
X117624717Y-86673820D01*
X117423097Y-86539102D01*
X117199069Y-86446307D01*
X116961243Y-86399000D01*
X116718757Y-86399000D01*
X116480931Y-86446307D01*
X116256903Y-86539102D01*
X116055283Y-86673820D01*
X115883820Y-86845283D01*
X115749102Y-87046903D01*
X115656307Y-87270931D01*
X115609000Y-87508757D01*
X115406000Y-87508757D01*
X115406000Y-84968757D01*
X115609000Y-84968757D01*
X115609000Y-85211243D01*
X115656307Y-85449069D01*
X115749102Y-85673097D01*
X115883820Y-85874717D01*
X116055283Y-86046180D01*
X116256903Y-86180898D01*
X116480931Y-86273693D01*
X116718757Y-86321000D01*
X116961243Y-86321000D01*
X117199069Y-86273693D01*
X117423097Y-86180898D01*
X117624717Y-86046180D01*
X117796180Y-85874717D01*
X117930898Y-85673097D01*
X117962832Y-85596000D01*
X119805409Y-85596000D01*
X120449628Y-86240220D01*
X120465473Y-86259527D01*
X120542521Y-86322759D01*
X120630425Y-86369745D01*
X120725807Y-86398678D01*
X120800146Y-86406000D01*
X120800154Y-86406000D01*
X120825000Y-86408447D01*
X120849846Y-86406000D01*
X121427748Y-86406000D01*
X121434513Y-86474689D01*
X121456299Y-86546508D01*
X121491678Y-86612696D01*
X121539289Y-86670711D01*
X121597304Y-86718322D01*
X121663492Y-86753701D01*
X121735311Y-86775487D01*
X121810000Y-86782843D01*
X123810000Y-86782843D01*
X123884689Y-86775487D01*
X123956508Y-86753701D01*
X124022696Y-86718322D01*
X124080711Y-86670711D01*
X124128322Y-86612696D01*
X124163701Y-86546508D01*
X124185487Y-86474689D01*
X124192843Y-86400000D01*
X124192843Y-85400000D01*
X137427157Y-85400000D01*
X137427157Y-86400000D01*
X137434513Y-86474689D01*
X137456299Y-86546508D01*
X137491678Y-86612696D01*
X137539289Y-86670711D01*
X137597304Y-86718322D01*
X137663492Y-86753701D01*
X137735311Y-86775487D01*
X137810000Y-86782843D01*
X139810000Y-86782843D01*
X139884689Y-86775487D01*
X139956508Y-86753701D01*
X140022696Y-86718322D01*
X140080711Y-86670711D01*
X140128322Y-86612696D01*
X140163701Y-86546508D01*
X140185487Y-86474689D01*
X140192252Y-86406000D01*
X142167154Y-86406000D01*
X142192000Y-86408447D01*
X142216846Y-86406000D01*
X142216854Y-86406000D01*
X142291193Y-86398678D01*
X142386575Y-86369745D01*
X142474479Y-86322759D01*
X142551527Y-86259527D01*
X142567376Y-86240215D01*
X143211592Y-85596000D01*
X146197168Y-85596000D01*
X146229102Y-85673097D01*
X146363820Y-85874717D01*
X146535283Y-86046180D01*
X146736903Y-86180898D01*
X146960931Y-86273693D01*
X147198757Y-86321000D01*
X147441243Y-86321000D01*
X147679069Y-86273693D01*
X147903097Y-86180898D01*
X148104717Y-86046180D01*
X148276180Y-85874717D01*
X148410898Y-85673097D01*
X148503693Y-85449069D01*
X148551000Y-85211243D01*
X148551000Y-84968757D01*
X148503693Y-84730931D01*
X148410898Y-84506903D01*
X148276180Y-84305283D01*
X148104717Y-84133820D01*
X147903097Y-83999102D01*
X147679069Y-83906307D01*
X147441243Y-83859000D01*
X147198757Y-83859000D01*
X146960931Y-83906307D01*
X146736903Y-83999102D01*
X146535283Y-84133820D01*
X146363820Y-84305283D01*
X146229102Y-84506903D01*
X146197168Y-84584000D01*
X143026846Y-84584000D01*
X143002000Y-84581553D01*
X142977154Y-84584000D01*
X142977146Y-84584000D01*
X142902807Y-84591322D01*
X142807425Y-84620255D01*
X142719521Y-84667241D01*
X142642473Y-84730473D01*
X142626628Y-84749780D01*
X141982409Y-85394000D01*
X140192252Y-85394000D01*
X140185487Y-85325311D01*
X140163701Y-85253492D01*
X140128322Y-85187304D01*
X140080711Y-85129289D01*
X140022696Y-85081678D01*
X139956508Y-85046299D01*
X139884689Y-85024513D01*
X139810000Y-85017157D01*
X137810000Y-85017157D01*
X137735311Y-85024513D01*
X137663492Y-85046299D01*
X137597304Y-85081678D01*
X137539289Y-85129289D01*
X137491678Y-85187304D01*
X137456299Y-85253492D01*
X137434513Y-85325311D01*
X137427157Y-85400000D01*
X124192843Y-85400000D01*
X124185487Y-85325311D01*
X124163701Y-85253492D01*
X124128322Y-85187304D01*
X124080711Y-85129289D01*
X124022696Y-85081678D01*
X123956508Y-85046299D01*
X123884689Y-85024513D01*
X123810000Y-85017157D01*
X121810000Y-85017157D01*
X121735311Y-85024513D01*
X121663492Y-85046299D01*
X121597304Y-85081678D01*
X121539289Y-85129289D01*
X121491678Y-85187304D01*
X121456299Y-85253492D01*
X121434513Y-85325311D01*
X121427748Y-85394000D01*
X121034592Y-85394000D01*
X120390376Y-84749785D01*
X120374527Y-84730473D01*
X120297479Y-84667241D01*
X120209575Y-84620255D01*
X120114193Y-84591322D01*
X120039854Y-84584000D01*
X120039846Y-84584000D01*
X120015000Y-84581553D01*
X119990154Y-84584000D01*
X117962832Y-84584000D01*
X117930898Y-84506903D01*
X117796180Y-84305283D01*
X117624717Y-84133820D01*
X117423097Y-83999102D01*
X117199069Y-83906307D01*
X116961243Y-83859000D01*
X116718757Y-83859000D01*
X116480931Y-83906307D01*
X116256903Y-83999102D01*
X116055283Y-84133820D01*
X115883820Y-84305283D01*
X115749102Y-84506903D01*
X115656307Y-84730931D01*
X115609000Y-84968757D01*
X115406000Y-84968757D01*
X115406000Y-81114473D01*
X115459463Y-81214494D01*
X115538815Y-81311185D01*
X115635506Y-81390537D01*
X115745820Y-81449502D01*
X115865518Y-81485812D01*
X115990000Y-81498072D01*
X116200294Y-81496927D01*
X116055283Y-81593820D01*
X115883820Y-81765283D01*
X115749102Y-81966903D01*
X115656307Y-82190931D01*
X115609000Y-82428757D01*
X115609000Y-82671243D01*
X115656307Y-82909069D01*
X115749102Y-83133097D01*
X115883820Y-83334717D01*
X116055283Y-83506180D01*
X116256903Y-83640898D01*
X116480931Y-83733693D01*
X116718757Y-83781000D01*
X116961243Y-83781000D01*
X117199069Y-83733693D01*
X117423097Y-83640898D01*
X117624717Y-83506180D01*
X117796180Y-83334717D01*
X117930898Y-83133097D01*
X117962832Y-83056000D01*
X119170409Y-83056000D01*
X120354628Y-84240220D01*
X120370473Y-84259527D01*
X120447521Y-84322759D01*
X120535425Y-84369745D01*
X120608607Y-84391944D01*
X120630806Y-84398678D01*
X120640694Y-84399652D01*
X120705146Y-84406000D01*
X120705153Y-84406000D01*
X120729999Y-84408447D01*
X120754845Y-84406000D01*
X121427748Y-84406000D01*
X121434513Y-84474689D01*
X121456299Y-84546508D01*
X121491678Y-84612696D01*
X121539289Y-84670711D01*
X121597304Y-84718322D01*
X121663492Y-84753701D01*
X121735311Y-84775487D01*
X121810000Y-84782843D01*
X123810000Y-84782843D01*
X123884689Y-84775487D01*
X123956508Y-84753701D01*
X124022696Y-84718322D01*
X124080711Y-84670711D01*
X124128322Y-84612696D01*
X124163701Y-84546508D01*
X124185487Y-84474689D01*
X124192843Y-84400000D01*
X124192843Y-83400000D01*
X137427157Y-83400000D01*
X137427157Y-84400000D01*
X137434513Y-84474689D01*
X137456299Y-84546508D01*
X137491678Y-84612696D01*
X137539289Y-84670711D01*
X137597304Y-84718322D01*
X137663492Y-84753701D01*
X137735311Y-84775487D01*
X137810000Y-84782843D01*
X139810000Y-84782843D01*
X139884689Y-84775487D01*
X139956508Y-84753701D01*
X140022696Y-84718322D01*
X140080711Y-84670711D01*
X140128322Y-84612696D01*
X140163701Y-84546508D01*
X140185487Y-84474689D01*
X140192252Y-84406000D01*
X143405154Y-84406000D01*
X143430000Y-84408447D01*
X143454846Y-84406000D01*
X143454854Y-84406000D01*
X143529193Y-84398678D01*
X143624575Y-84369745D01*
X143712479Y-84322759D01*
X143789527Y-84259527D01*
X143805376Y-84240215D01*
X144989592Y-83056000D01*
X146197168Y-83056000D01*
X146229102Y-83133097D01*
X146363820Y-83334717D01*
X146535283Y-83506180D01*
X146736903Y-83640898D01*
X146960931Y-83733693D01*
X147198757Y-83781000D01*
X147441243Y-83781000D01*
X147679069Y-83733693D01*
X147903097Y-83640898D01*
X148104717Y-83506180D01*
X148276180Y-83334717D01*
X148410898Y-83133097D01*
X148503693Y-82909069D01*
X148551000Y-82671243D01*
X148551000Y-82428757D01*
X148503693Y-82190931D01*
X148410898Y-81966903D01*
X148276180Y-81765283D01*
X148104717Y-81593820D01*
X147903097Y-81459102D01*
X147679069Y-81366307D01*
X147441243Y-81319000D01*
X147198757Y-81319000D01*
X146960931Y-81366307D01*
X146736903Y-81459102D01*
X146535283Y-81593820D01*
X146363820Y-81765283D01*
X146229102Y-81966903D01*
X146197168Y-82044000D01*
X144804845Y-82044000D01*
X144779999Y-82041553D01*
X144755153Y-82044000D01*
X144755146Y-82044000D01*
X144690694Y-82050348D01*
X144680806Y-82051322D01*
X144658607Y-82058056D01*
X144585425Y-82080255D01*
X144497521Y-82127241D01*
X144420473Y-82190473D01*
X144404628Y-82209780D01*
X143220409Y-83394000D01*
X140192252Y-83394000D01*
X140185487Y-83325311D01*
X140163701Y-83253492D01*
X140128322Y-83187304D01*
X140080711Y-83129289D01*
X140022696Y-83081678D01*
X139956508Y-83046299D01*
X139884689Y-83024513D01*
X139810000Y-83017157D01*
X137810000Y-83017157D01*
X137735311Y-83024513D01*
X137663492Y-83046299D01*
X137597304Y-83081678D01*
X137539289Y-83129289D01*
X137491678Y-83187304D01*
X137456299Y-83253492D01*
X137434513Y-83325311D01*
X137427157Y-83400000D01*
X124192843Y-83400000D01*
X124185487Y-83325311D01*
X124163701Y-83253492D01*
X124128322Y-83187304D01*
X124080711Y-83129289D01*
X124022696Y-83081678D01*
X123956508Y-83046299D01*
X123900126Y-83029196D01*
X123934482Y-83025812D01*
X124054180Y-82989502D01*
X124164494Y-82930537D01*
X124261185Y-82851185D01*
X124340537Y-82754494D01*
X124399502Y-82644180D01*
X124435812Y-82524482D01*
X124448072Y-82400000D01*
X124445000Y-82185750D01*
X124286250Y-82027000D01*
X122937000Y-82027000D01*
X122937000Y-82047000D01*
X122683000Y-82047000D01*
X122683000Y-82027000D01*
X121333750Y-82027000D01*
X121175000Y-82185750D01*
X121171928Y-82400000D01*
X121184188Y-82524482D01*
X121220498Y-82644180D01*
X121279463Y-82754494D01*
X121358815Y-82851185D01*
X121455506Y-82930537D01*
X121565820Y-82989502D01*
X121685518Y-83025812D01*
X121719874Y-83029196D01*
X121663492Y-83046299D01*
X121597304Y-83081678D01*
X121539289Y-83129289D01*
X121491678Y-83187304D01*
X121456299Y-83253492D01*
X121434513Y-83325311D01*
X121427748Y-83394000D01*
X120939592Y-83394000D01*
X119755376Y-82209785D01*
X119739527Y-82190473D01*
X119662479Y-82127241D01*
X119574575Y-82080255D01*
X119479193Y-82051322D01*
X119404854Y-82044000D01*
X119404846Y-82044000D01*
X119380000Y-82041553D01*
X119355154Y-82044000D01*
X117962832Y-82044000D01*
X117930898Y-81966903D01*
X117796180Y-81765283D01*
X117624717Y-81593820D01*
X117479706Y-81496927D01*
X117690000Y-81498072D01*
X117814482Y-81485812D01*
X117934180Y-81449502D01*
X118026790Y-81400000D01*
X121171928Y-81400000D01*
X121175000Y-81614250D01*
X121333750Y-81773000D01*
X122683000Y-81773000D01*
X122683000Y-80923750D01*
X122937000Y-80923750D01*
X122937000Y-81773000D01*
X124286250Y-81773000D01*
X124445000Y-81614250D01*
X124448072Y-81400000D01*
X137427157Y-81400000D01*
X137427157Y-82400000D01*
X137434513Y-82474689D01*
X137456299Y-82546508D01*
X137491678Y-82612696D01*
X137539289Y-82670711D01*
X137597304Y-82718322D01*
X137663492Y-82753701D01*
X137735311Y-82775487D01*
X137810000Y-82782843D01*
X139810000Y-82782843D01*
X139884689Y-82775487D01*
X139956508Y-82753701D01*
X140022696Y-82718322D01*
X140080711Y-82670711D01*
X140128322Y-82612696D01*
X140163701Y-82546508D01*
X140185487Y-82474689D01*
X140192252Y-82406000D01*
X142865154Y-82406000D01*
X142890000Y-82408447D01*
X142914846Y-82406000D01*
X142914854Y-82406000D01*
X142989193Y-82398678D01*
X143084575Y-82369745D01*
X143172479Y-82322759D01*
X143249527Y-82259527D01*
X143265376Y-82240215D01*
X144989592Y-80516000D01*
X146197168Y-80516000D01*
X146229102Y-80593097D01*
X146363820Y-80794717D01*
X146535283Y-80966180D01*
X146736903Y-81100898D01*
X146960931Y-81193693D01*
X147198757Y-81241000D01*
X147441243Y-81241000D01*
X147679069Y-81193693D01*
X147903097Y-81100898D01*
X148104717Y-80966180D01*
X148276180Y-80794717D01*
X148410898Y-80593097D01*
X148503693Y-80369069D01*
X148551000Y-80131243D01*
X148551000Y-79888757D01*
X148503693Y-79650931D01*
X148410898Y-79426903D01*
X148276180Y-79225283D01*
X148104717Y-79053820D01*
X147903097Y-78919102D01*
X147679069Y-78826307D01*
X147441243Y-78779000D01*
X147198757Y-78779000D01*
X146960931Y-78826307D01*
X146736903Y-78919102D01*
X146535283Y-79053820D01*
X146363820Y-79225283D01*
X146229102Y-79426903D01*
X146197168Y-79504000D01*
X144804854Y-79504000D01*
X144780000Y-79501552D01*
X144755146Y-79504000D01*
X144680807Y-79511322D01*
X144585425Y-79540255D01*
X144497521Y-79587241D01*
X144420473Y-79650473D01*
X144404628Y-79669780D01*
X142680409Y-81394000D01*
X140192252Y-81394000D01*
X140185487Y-81325311D01*
X140163701Y-81253492D01*
X140128322Y-81187304D01*
X140080711Y-81129289D01*
X140022696Y-81081678D01*
X139956508Y-81046299D01*
X139884689Y-81024513D01*
X139810000Y-81017157D01*
X137810000Y-81017157D01*
X137735311Y-81024513D01*
X137663492Y-81046299D01*
X137597304Y-81081678D01*
X137539289Y-81129289D01*
X137491678Y-81187304D01*
X137456299Y-81253492D01*
X137434513Y-81325311D01*
X137427157Y-81400000D01*
X124448072Y-81400000D01*
X124435812Y-81275518D01*
X124399502Y-81155820D01*
X124340537Y-81045506D01*
X124261185Y-80948815D01*
X124164494Y-80869463D01*
X124054180Y-80810498D01*
X123934482Y-80774188D01*
X123810000Y-80761928D01*
X123095750Y-80765000D01*
X122937000Y-80923750D01*
X122683000Y-80923750D01*
X122524250Y-80765000D01*
X121810000Y-80761928D01*
X121685518Y-80774188D01*
X121565820Y-80810498D01*
X121455506Y-80869463D01*
X121358815Y-80948815D01*
X121279463Y-81045506D01*
X121220498Y-81155820D01*
X121184188Y-81275518D01*
X121171928Y-81400000D01*
X118026790Y-81400000D01*
X118044494Y-81390537D01*
X118141185Y-81311185D01*
X118220537Y-81214494D01*
X118279502Y-81104180D01*
X118315812Y-80984482D01*
X118328072Y-80860000D01*
X118325000Y-80295750D01*
X118166250Y-80137000D01*
X116967000Y-80137000D01*
X116967000Y-80157000D01*
X116713000Y-80157000D01*
X116713000Y-80137000D01*
X116693000Y-80137000D01*
X116693000Y-79883000D01*
X116713000Y-79883000D01*
X116713000Y-78683750D01*
X116967000Y-78683750D01*
X116967000Y-79883000D01*
X118166250Y-79883000D01*
X118325000Y-79724250D01*
X118328072Y-79160000D01*
X118315812Y-79035518D01*
X118279502Y-78915820D01*
X118220537Y-78805506D01*
X118141185Y-78708815D01*
X118044494Y-78629463D01*
X117934180Y-78570498D01*
X117814482Y-78534188D01*
X117690000Y-78521928D01*
X117125750Y-78525000D01*
X116967000Y-78683750D01*
X116713000Y-78683750D01*
X116554250Y-78525000D01*
X116409332Y-78524211D01*
X116679872Y-78440465D01*
X117007782Y-78406000D01*
X146980146Y-78406000D01*
X147309229Y-78438267D01*
G37*
%TD.AperFunction*%
%TD*%
M02*
