%TF.GenerationSoftware,KiCad,Pcbnew,5.1.12-84ad8e8a86~92~ubuntu20.04.1*%
%TF.CreationDate,2021-12-04T14:18:14+01:00*%
%TF.ProjectId,RFMBreakout,52464d42-7265-4616-9b6f-75742e6b6963,rev?*%
%TF.SameCoordinates,Original*%
%TF.FileFunction,Soldermask,Top*%
%TF.FilePolarity,Negative*%
%FSLAX46Y46*%
G04 Gerber Fmt 4.6, Leading zero omitted, Abs format (unit mm)*
G04 Created by KiCad (PCBNEW 5.1.12-84ad8e8a86~92~ubuntu20.04.1) date 2021-12-04 14:18:14*
%MOMM*%
%LPD*%
G01*
G04 APERTURE LIST*
%ADD10C,2.250000*%
%ADD11R,1.000000X1.000000*%
%ADD12R,1.050000X2.200000*%
%ADD13O,1.700000X1.700000*%
%ADD14R,1.700000X1.700000*%
%ADD15R,2.000000X1.000000*%
G04 APERTURE END LIST*
D10*
%TO.C,J4*%
X134540000Y-99060000D03*
X134540000Y-104140000D03*
X129460000Y-104140000D03*
X129460000Y-99060000D03*
X132000000Y-101600000D03*
%TD*%
D11*
%TO.C,J3*%
X143000000Y-101500000D03*
X143000000Y-104500000D03*
D12*
X141525000Y-103000000D03*
X144475000Y-103000000D03*
%TD*%
D13*
%TO.C,J2*%
X147320000Y-80010000D03*
X147320000Y-82550000D03*
X147320000Y-85090000D03*
X147320000Y-87630000D03*
X147320000Y-90170000D03*
X147320000Y-92710000D03*
X147320000Y-95250000D03*
D14*
X147320000Y-97790000D03*
%TD*%
%TO.C,C1*%
G36*
G01*
X143035000Y-88715000D02*
X143985000Y-88715000D01*
G75*
G02*
X144235000Y-88965000I0J-250000D01*
G01*
X144235000Y-89640000D01*
G75*
G02*
X143985000Y-89890000I-250000J0D01*
G01*
X143035000Y-89890000D01*
G75*
G02*
X142785000Y-89640000I0J250000D01*
G01*
X142785000Y-88965000D01*
G75*
G02*
X143035000Y-88715000I250000J0D01*
G01*
G37*
G36*
G01*
X143035000Y-86640000D02*
X143985000Y-86640000D01*
G75*
G02*
X144235000Y-86890000I0J-250000D01*
G01*
X144235000Y-87565000D01*
G75*
G02*
X143985000Y-87815000I-250000J0D01*
G01*
X143035000Y-87815000D01*
G75*
G02*
X142785000Y-87565000I0J250000D01*
G01*
X142785000Y-86890000D01*
G75*
G02*
X143035000Y-86640000I250000J0D01*
G01*
G37*
%TD*%
D15*
%TO.C,U1*%
X138810000Y-81900000D03*
X138810000Y-83900000D03*
X138810000Y-85900000D03*
X138810000Y-87900000D03*
X138810000Y-89900000D03*
X138810000Y-91900000D03*
X138810000Y-93900000D03*
X138810000Y-95900000D03*
X122810000Y-95900000D03*
X122810000Y-93900000D03*
X122810000Y-91900000D03*
X122810000Y-89900000D03*
X122810000Y-87900000D03*
X122810000Y-85900000D03*
X122810000Y-83900000D03*
X122810000Y-81900000D03*
%TD*%
D13*
%TO.C,J1*%
X116840000Y-97790000D03*
X116840000Y-95250000D03*
X116840000Y-92710000D03*
X116840000Y-90170000D03*
X116840000Y-87630000D03*
X116840000Y-85090000D03*
X116840000Y-82550000D03*
D14*
X116840000Y-80010000D03*
%TD*%
M02*
